<svg xmlns="http://www.w3.org/2000/svg" viewBox="130 90 970 560" width="100%" height="100%">
<rect width="100%" height="100%" fill="none"/>
<path fill="rgb(2,12,30)" d="M 229 560 L 229 563 L 228 564 L 228 568 L 230 570 L 230 571 L 231 572 L 232 572 L 236 576 L 242 576 L 243 577 L 245 577 L 246 576 L 251 576 L 252 575 L 253 575 L 254 574 L 254 572 L 255 571 L 255 569 L 256 568 L 256 565 L 254 563 L 254 560 L 253 559 L 252 559 L 251 558 L 250 558 L 248 556 L 247 556 L 246 555 L 244 555 L 243 554 L 241 554 L 240 553 L 238 553 L 237 554 L 235 554 L 235 555 L 230 560 Z M 1014 459 L 1014 462 L 1015 463 L 1015 465 L 1018 468 L 1019 468 L 1022 470 L 1042 470 L 1043 469 L 1045 469 L 1045 462 L 1046 461 L 1046 455 L 1045 454 L 1045 453 L 1042 450 L 1041 450 L 1040 449 L 1037 449 L 1036 448 L 1027 448 L 1026 449 L 1024 449 L 1023 450 L 1021 450 L 1020 451 L 1019 451 L 1017 453 L 1017 454 L 1016 455 L 1016 456 Z M 439 413 L 437 413 L 436 414 L 436 416 L 435 417 L 434 422 L 432 425 L 432 427 L 431 428 L 431 430 L 429 433 L 429 435 L 428 436 L 427 441 L 425 444 L 424 449 L 422 452 L 422 454 L 421 455 L 421 457 L 420 458 L 420 462 L 423 462 L 424 461 L 427 461 L 428 460 L 430 460 L 431 459 L 433 459 L 434 458 L 437 458 L 438 457 L 440 457 L 441 456 L 443 456 L 444 455 L 446 455 L 447 454 L 450 454 L 451 453 L 451 450 L 450 449 L 450 446 L 449 445 L 449 443 L 448 442 L 448 440 L 447 439 L 447 437 L 446 436 L 446 434 L 445 433 L 445 431 L 444 430 L 444 428 L 443 427 L 443 425 L 442 424 L 442 422 L 441 421 L 441 419 L 440 418 Z M 592 408 L 590 406 L 589 406 L 588 405 L 585 405 L 584 404 L 564 404 L 563 405 L 558 405 L 557 406 L 557 409 L 558 410 L 558 431 L 559 432 L 559 436 L 558 437 L 558 439 L 561 439 L 562 438 L 564 438 L 567 436 L 569 436 L 570 435 L 571 435 L 573 433 L 574 433 L 575 432 L 576 432 L 578 430 L 579 430 L 582 427 L 583 427 L 589 421 L 589 420 L 592 415 Z M 823 401 L 821 401 L 821 402 L 820 403 L 820 405 L 818 408 L 818 410 L 817 411 L 817 413 L 816 414 L 816 416 L 814 419 L 814 421 L 813 422 L 813 424 L 811 427 L 811 429 L 810 430 L 810 432 L 808 435 L 808 437 L 807 438 L 807 440 L 806 441 L 806 443 L 814 443 L 815 442 L 822 442 L 823 441 L 832 441 L 833 440 L 834 440 L 834 435 L 832 432 L 832 428 L 830 425 L 830 422 L 829 421 L 829 419 L 828 418 L 828 416 L 827 415 L 827 413 L 826 412 L 826 410 L 825 409 L 825 407 L 824 406 L 824 404 L 823 403 Z M 868 270 L 866 270 L 865 271 L 865 272 L 864 273 L 864 274 L 862 276 L 862 277 L 860 279 L 860 280 L 859 281 L 859 282 L 857 284 L 857 285 L 856 286 L 856 287 L 855 288 L 855 290 L 864 290 L 865 289 L 867 289 L 867 275 L 868 274 Z M 865 144 L 864 143 L 858 143 L 854 147 L 853 147 L 851 149 L 851 150 L 850 151 L 850 152 L 849 153 L 849 157 L 850 158 L 858 158 L 863 153 L 863 152 L 864 151 L 864 150 L 865 149 Z M 804 144 L 801 144 L 800 143 L 798 143 L 794 147 L 794 148 L 793 149 L 793 150 L 792 151 L 792 152 L 791 153 L 791 154 L 790 155 L 790 157 L 789 158 L 789 160 L 788 161 L 788 163 L 787 164 L 787 165 L 786 166 L 786 169 L 785 170 L 785 177 L 787 177 L 794 170 L 794 169 L 799 164 L 799 163 L 801 161 L 801 160 L 803 158 L 803 157 L 804 156 L 804 155 L 806 153 L 806 147 L 805 146 L 805 145 Z M 860 110 L 854 110 L 845 118 L 844 118 L 844 119 L 842 120 L 840 123 L 839 123 L 838 126 L 833 132 L 833 133 L 827 141 L 826 144 L 824 146 L 823 149 L 821 151 L 819 155 L 819 157 L 818 158 L 818 161 L 820 161 L 826 155 L 827 155 L 830 152 L 831 152 L 836 147 L 837 147 L 846 139 L 849 138 L 849 135 L 851 134 L 851 133 L 855 129 L 856 129 L 856 128 L 861 122 L 861 120 L 862 119 L 863 114 Z M 239 216 L 269 294 L 246 292 L 304 319 L 265 327 L 236 302 L 205 323 L 216 351 L 195 384 L 257 489 L 249 525 L 309 537 L 313 561 L 320 547 L 383 573 L 385 596 L 403 575 L 406 639 L 414 559 L 435 584 L 466 547 L 478 555 L 453 576 L 527 564 L 566 601 L 620 559 L 653 575 L 664 562 L 820 580 L 845 553 L 868 599 L 871 557 L 899 548 L 905 605 L 911 541 L 983 463 L 971 430 L 902 411 L 975 421 L 987 407 L 901 399 L 887 363 L 909 301 L 950 292 L 918 296 L 921 234 L 867 226 L 857 203 L 812 211 L 828 174 L 766 195 L 763 165 L 718 173 L 719 140 L 683 134 L 669 168 L 632 125 L 607 127 L 589 161 L 585 122 L 543 109 L 546 167 L 531 140 L 508 142 L 499 188 L 480 190 L 470 153 Z M 456 521 L 456 523 L 455 524 L 454 524 L 453 525 L 451 525 L 450 526 L 448 526 L 447 527 L 445 527 L 444 528 L 442 528 L 441 529 L 439 529 L 438 530 L 437 530 L 436 531 L 434 531 L 433 532 L 432 532 L 431 533 L 429 533 L 428 534 L 427 534 L 426 535 L 424 535 L 423 536 L 421 536 L 420 535 L 420 530 L 421 529 L 422 529 L 424 527 L 425 527 L 426 526 L 427 526 L 428 525 L 429 525 L 430 524 L 431 524 L 432 523 L 434 523 L 435 522 L 437 522 L 438 521 L 440 521 L 441 520 L 443 520 L 444 519 L 446 519 L 447 518 L 449 518 L 450 517 L 453 517 L 455 519 L 455 520 Z M 825 535 L 824 548 L 814 557 L 742 544 L 645 541 L 536 551 L 465 567 L 469 562 L 499 550 L 596 525 L 609 527 L 691 517 L 766 517 L 806 522 L 819 527 Z M 820 488 L 822 488 L 823 489 L 823 491 L 824 492 L 824 494 L 825 495 L 825 497 L 826 498 L 826 499 L 827 500 L 827 502 L 828 503 L 828 506 L 829 507 L 829 509 L 830 510 L 830 512 L 829 513 L 826 513 L 825 512 L 822 512 L 821 511 L 820 511 L 819 510 L 817 510 L 816 509 L 814 509 L 813 508 L 809 508 L 808 507 L 808 505 L 809 504 L 815 504 L 816 503 L 817 503 L 817 497 L 818 496 L 818 490 Z M 365 470 L 365 473 L 363 475 L 356 477 L 342 484 L 340 486 L 337 487 L 335 489 L 330 491 L 320 498 L 317 499 L 301 511 L 297 513 L 293 513 L 289 509 L 289 507 L 300 500 L 310 492 L 313 491 L 326 482 L 331 480 L 336 476 L 338 476 L 342 473 L 344 473 L 349 470 L 352 470 L 353 469 L 363 468 Z M 382 413 L 383 414 L 383 416 L 382 417 L 382 418 L 381 419 L 381 421 L 378 426 L 378 428 L 376 431 L 376 433 L 374 436 L 374 438 L 372 441 L 372 443 L 371 444 L 371 445 L 370 446 L 370 448 L 368 451 L 368 453 L 367 454 L 367 456 L 365 459 L 365 461 L 364 462 L 361 462 L 360 461 L 360 458 L 361 457 L 361 455 L 362 454 L 362 453 L 365 448 L 365 446 L 367 443 L 367 441 L 368 440 L 368 438 L 371 433 L 371 431 L 374 426 L 374 424 L 375 423 L 375 422 L 376 421 L 376 420 L 377 419 L 377 418 L 378 417 L 379 414 L 380 413 Z M 232 401 L 234 400 L 238 401 L 242 411 L 244 413 L 288 497 L 287 500 L 283 500 L 278 490 L 274 485 L 267 470 L 265 468 L 251 440 L 231 404 Z M 261 382 L 264 383 L 264 385 L 266 387 L 275 405 L 277 407 L 283 420 L 298 445 L 308 466 L 311 470 L 311 473 L 310 474 L 307 474 L 302 464 L 300 462 L 299 458 L 292 447 L 292 445 L 290 443 L 278 419 L 274 414 L 272 409 L 259 387 L 259 384 Z M 350 375 L 352 375 L 353 376 L 354 376 L 358 380 L 358 381 L 360 383 L 360 386 L 361 387 L 361 389 L 363 391 L 363 392 L 364 393 L 364 394 L 367 397 L 367 398 L 368 399 L 368 400 L 369 401 L 369 402 L 371 405 L 371 407 L 373 410 L 373 413 L 372 414 L 370 414 L 369 413 L 369 412 L 367 410 L 367 409 L 365 407 L 365 406 L 364 405 L 364 404 L 363 403 L 363 402 L 362 401 L 362 400 L 361 399 L 361 398 L 359 395 L 359 393 L 357 391 L 357 390 L 355 388 L 355 387 L 353 385 L 353 384 L 351 382 L 351 381 L 349 378 L 349 376 Z M 510 373 L 548 365 L 582 364 L 604 368 L 621 377 L 632 394 L 632 416 L 626 428 L 612 442 L 599 449 L 599 452 L 647 481 L 656 490 L 633 508 L 622 510 L 560 467 L 561 504 L 526 507 L 521 487 L 516 421 L 499 425 L 491 400 L 492 395 L 524 385 L 509 378 Z M 299 363 L 305 363 L 307 365 L 357 459 L 355 465 L 349 465 L 317 481 L 314 481 L 313 478 L 319 474 L 319 471 L 289 417 L 267 381 L 270 376 L 280 370 Z M 760 358 L 751 396 L 681 403 L 682 421 L 728 418 L 728 440 L 683 446 L 682 464 L 747 455 L 748 463 L 741 490 L 666 501 L 665 498 L 674 489 L 642 471 L 639 375 L 696 364 Z M 475 354 L 471 377 L 494 442 L 506 442 L 506 475 L 523 521 L 480 532 L 463 485 L 457 483 L 409 501 L 393 549 L 353 541 L 358 520 L 326 523 L 319 508 L 321 504 L 372 478 L 405 392 L 399 377 L 435 363 Z M 306 355 L 306 358 L 305 359 L 297 359 L 296 360 L 291 361 L 288 363 L 278 366 L 264 373 L 239 390 L 230 399 L 227 401 L 225 401 L 224 400 L 224 395 L 233 386 L 234 386 L 244 377 L 255 370 L 276 359 L 278 359 L 286 355 L 289 355 L 297 352 L 304 352 Z M 777 352 L 858 341 L 885 432 L 931 434 L 962 444 L 958 467 L 893 461 L 910 523 L 856 526 L 840 470 L 789 476 L 784 499 L 744 496 L 757 453 L 790 370 L 776 356 Z M 291 349 L 291 351 L 290 352 L 287 352 L 286 353 L 278 355 L 273 358 L 271 358 L 257 365 L 255 367 L 252 368 L 238 378 L 236 378 L 235 377 L 235 374 L 236 373 L 236 365 L 237 364 L 237 362 L 234 362 L 233 361 L 233 359 L 234 357 L 239 352 L 240 352 L 246 347 L 254 343 L 256 343 L 259 341 L 263 341 L 264 340 L 276 340 L 277 341 L 280 341 L 286 344 Z M 295 331 L 311 335 L 310 329 L 313 328 L 318 335 L 325 337 L 326 329 L 323 323 L 324 319 L 331 320 L 333 323 L 335 323 L 337 319 L 342 322 L 341 332 L 335 333 L 332 339 L 347 342 L 348 348 L 346 352 L 349 355 L 351 362 L 358 370 L 358 373 L 355 374 L 346 369 L 341 369 L 342 376 L 349 393 L 354 394 L 355 402 L 360 405 L 360 409 L 357 412 L 355 412 L 354 409 L 349 405 L 346 395 L 336 382 L 318 350 L 311 343 L 301 339 L 298 335 L 295 335 Z M 244 315 L 245 316 L 245 318 L 246 319 L 246 320 L 247 321 L 247 322 L 248 323 L 248 324 L 249 325 L 249 326 L 250 327 L 250 328 L 251 329 L 251 330 L 252 331 L 252 332 L 253 333 L 253 334 L 255 337 L 255 340 L 254 341 L 252 341 L 251 342 L 250 342 L 249 343 L 248 343 L 245 345 L 240 345 L 240 346 L 237 349 L 235 349 L 231 344 L 231 343 L 230 342 L 230 341 L 229 340 L 229 339 L 228 338 L 228 337 L 227 336 L 227 335 L 226 334 L 226 333 L 225 332 L 224 329 L 222 327 L 222 323 L 225 320 L 226 320 L 227 319 L 229 319 L 232 317 L 235 317 L 236 316 L 238 316 L 239 315 Z M 885 244 L 887 246 L 884 286 L 894 288 L 893 297 L 890 300 L 885 301 L 884 305 L 885 324 L 882 326 L 876 327 L 867 326 L 867 304 L 844 308 L 835 323 L 826 322 L 824 320 L 824 317 L 829 299 L 828 293 L 836 291 L 862 246 L 864 244 Z M 836 242 L 838 244 L 838 248 L 825 284 L 820 314 L 818 316 L 805 318 L 797 302 L 792 286 L 789 284 L 782 316 L 779 319 L 765 322 L 764 315 L 779 252 L 781 250 L 796 249 L 801 258 L 808 281 L 810 281 L 818 246 L 822 242 Z M 774 213 L 776 215 L 776 220 L 775 221 L 775 223 L 774 224 L 774 226 L 773 227 L 773 229 L 772 230 L 772 232 L 771 233 L 771 236 L 770 237 L 770 240 L 769 241 L 769 243 L 768 244 L 768 247 L 767 248 L 767 251 L 766 252 L 766 255 L 764 258 L 764 262 L 763 263 L 761 263 L 760 262 L 760 258 L 761 257 L 761 254 L 762 253 L 762 249 L 763 248 L 763 244 L 764 243 L 764 238 L 765 237 L 765 234 L 766 233 L 766 229 L 767 228 L 767 225 L 768 224 L 768 220 L 769 219 L 769 217 L 770 216 L 770 215 L 772 213 Z M 538 211 L 538 245 L 466 260 L 469 277 L 519 269 L 521 291 L 473 301 L 475 316 L 478 318 L 541 306 L 542 339 L 492 350 L 487 349 L 487 344 L 445 350 L 419 236 Z M 740 204 L 730 337 L 735 338 L 733 347 L 677 350 L 681 271 L 642 330 L 625 328 L 594 276 L 595 336 L 555 339 L 549 209 L 600 209 L 639 270 L 681 195 Z M 566 193 L 566 196 L 564 198 L 561 198 L 559 196 L 557 196 L 556 195 L 550 195 L 549 196 L 535 196 L 534 197 L 525 197 L 524 198 L 518 198 L 517 197 L 517 195 L 518 194 L 524 194 L 525 193 L 529 193 L 530 192 L 537 192 L 538 191 L 552 191 L 553 190 L 564 190 Z M 674 178 L 675 177 L 689 177 L 690 178 L 697 178 L 698 179 L 702 179 L 703 180 L 703 182 L 702 183 L 698 183 L 697 182 L 682 182 L 681 181 L 675 181 L 674 180 Z M 459 170 L 465 214 L 391 237 L 422 356 L 389 370 L 390 382 L 381 385 L 357 319 L 341 258 L 283 279 L 262 224 Z"/>
<path fill="rgb(0,0,0)" d="M 397 580 L 396 581 L 392 581 L 391 582 L 391 589 L 392 589 L 393 590 L 393 594 L 398 594 L 399 595 L 399 601 L 400 601 L 401 602 L 401 605 L 400 606 L 399 606 L 399 609 L 400 610 L 400 621 L 398 623 L 398 625 L 399 625 L 400 626 L 400 634 L 401 635 L 403 635 L 403 588 L 402 588 L 401 587 L 401 581 L 400 581 L 399 580 Z M 529 589 L 536 594 L 536 599 L 541 590 L 547 590 L 550 604 L 561 601 L 567 607 L 586 608 L 591 614 L 594 609 L 599 611 L 600 605 L 603 608 L 611 605 L 612 611 L 641 612 L 649 623 L 654 623 L 656 618 L 683 617 L 690 624 L 692 618 L 707 618 L 713 627 L 716 627 L 717 615 L 725 604 L 733 606 L 733 611 L 727 614 L 730 616 L 738 608 L 749 605 L 753 594 L 753 584 L 750 583 L 751 590 L 746 595 L 735 592 L 738 599 L 735 603 L 731 598 L 717 597 L 711 602 L 704 600 L 700 607 L 687 609 L 683 606 L 680 610 L 664 606 L 663 596 L 654 598 L 653 587 L 645 583 L 650 575 L 627 576 L 621 571 L 622 563 L 610 564 L 600 572 L 606 584 L 609 580 L 616 584 L 615 591 L 598 596 L 595 590 L 580 583 L 581 596 L 576 602 L 561 601 L 539 578 L 535 579 L 534 588 Z M 265 554 L 262 554 L 261 555 L 260 555 L 260 557 L 259 558 L 255 558 L 254 557 L 254 556 L 252 556 L 252 558 L 254 558 L 255 559 L 255 560 L 256 561 L 256 563 L 257 564 L 257 568 L 256 569 L 256 573 L 255 574 L 255 576 L 254 577 L 246 577 L 245 578 L 243 578 L 242 577 L 237 577 L 237 581 L 239 581 L 240 582 L 239 587 L 243 587 L 244 586 L 244 582 L 247 580 L 256 580 L 256 577 L 257 576 L 260 576 L 263 573 L 263 571 L 262 570 L 262 567 L 261 567 L 260 566 L 260 564 L 261 563 L 262 563 L 262 561 L 263 560 L 265 560 L 265 559 L 266 558 L 266 555 Z M 626 536 L 626 539 L 695 538 L 742 541 L 788 548 L 812 554 L 811 549 L 800 546 L 799 543 L 784 540 L 774 542 L 769 541 L 768 538 L 727 534 L 707 534 L 706 536 L 703 536 L 702 533 L 672 533 L 667 536 L 664 536 L 663 534 Z M 471 499 L 471 507 L 472 508 L 472 510 L 474 512 L 474 515 L 475 516 L 475 518 L 476 519 L 476 521 L 477 522 L 477 523 L 478 524 L 478 526 L 479 527 L 479 529 L 480 530 L 480 531 L 483 531 L 483 529 L 482 528 L 482 526 L 481 525 L 481 522 L 480 521 L 480 519 L 479 518 L 479 516 L 478 515 L 478 513 L 477 512 L 477 510 L 476 509 L 476 503 L 475 502 L 475 501 L 474 500 L 474 499 Z M 314 495 L 311 495 L 310 496 L 309 496 L 306 499 L 305 499 L 303 501 L 302 501 L 300 503 L 299 503 L 296 506 L 295 506 L 294 507 L 294 511 L 299 511 L 300 510 L 301 510 L 303 508 L 304 508 L 306 506 L 307 506 L 310 503 L 311 503 L 311 501 L 314 498 Z M 231 492 L 231 493 L 229 495 L 228 495 L 225 498 L 224 498 L 224 500 L 225 501 L 227 501 L 227 500 L 228 499 L 230 499 L 231 500 L 232 500 L 233 501 L 233 504 L 236 504 L 237 505 L 237 506 L 238 506 L 239 507 L 239 511 L 238 512 L 238 515 L 241 515 L 241 514 L 243 512 L 243 510 L 245 507 L 245 505 L 246 504 L 248 504 L 248 502 L 249 501 L 251 501 L 251 500 L 253 498 L 253 496 L 250 496 L 249 495 L 249 493 L 247 493 L 247 495 L 246 496 L 243 496 L 243 497 L 242 498 L 240 498 L 240 501 L 239 502 L 236 502 L 235 501 L 235 497 L 234 497 L 233 496 L 233 492 Z M 426 490 L 415 489 L 413 491 L 411 491 L 410 495 L 408 495 L 406 493 L 406 491 L 403 489 L 401 489 L 399 494 L 396 494 L 395 492 L 393 492 L 392 495 L 389 495 L 387 492 L 384 492 L 381 495 L 381 500 L 385 501 L 384 505 L 378 508 L 369 508 L 367 510 L 368 515 L 365 518 L 363 532 L 359 536 L 356 536 L 356 538 L 365 541 L 369 541 L 373 543 L 391 546 L 399 523 L 403 519 L 406 510 L 405 505 L 408 504 L 408 499 L 412 495 L 416 495 L 423 492 L 426 492 Z M 711 487 L 704 487 L 704 488 L 703 489 L 688 489 L 687 488 L 683 488 L 681 490 L 678 490 L 678 492 L 677 493 L 673 493 L 672 494 L 672 496 L 673 496 L 674 497 L 677 497 L 678 496 L 683 496 L 684 495 L 686 495 L 687 496 L 690 496 L 690 495 L 691 494 L 694 494 L 695 493 L 699 493 L 700 492 L 705 492 L 706 493 L 708 493 L 708 492 L 709 491 L 711 491 Z M 500 476 L 499 476 L 498 475 L 498 473 L 497 472 L 493 472 L 493 475 L 492 476 L 488 476 L 488 480 L 487 481 L 485 481 L 485 482 L 484 483 L 482 483 L 481 482 L 476 482 L 475 481 L 475 477 L 473 477 L 472 478 L 472 480 L 474 480 L 475 481 L 475 486 L 474 487 L 472 487 L 471 486 L 469 486 L 468 485 L 468 483 L 467 483 L 466 482 L 466 481 L 464 481 L 464 487 L 465 488 L 465 490 L 475 490 L 476 491 L 476 492 L 478 492 L 478 489 L 479 488 L 482 488 L 482 485 L 483 484 L 491 484 L 492 483 L 492 481 L 493 480 L 497 480 L 498 479 L 500 479 Z M 557 470 L 550 470 L 549 469 L 546 469 L 546 470 L 545 471 L 543 471 L 543 472 L 542 473 L 537 473 L 536 474 L 530 474 L 530 477 L 529 478 L 529 480 L 533 480 L 533 478 L 534 477 L 536 477 L 537 478 L 540 478 L 540 477 L 541 476 L 545 476 L 546 475 L 551 475 L 552 474 L 554 474 L 555 475 L 557 475 Z M 594 464 L 593 463 L 593 462 L 583 462 L 582 463 L 580 463 L 578 465 L 575 465 L 574 464 L 572 464 L 572 465 L 571 466 L 569 466 L 568 467 L 566 467 L 566 469 L 568 469 L 569 470 L 569 471 L 571 473 L 574 473 L 575 474 L 577 474 L 577 473 L 578 472 L 578 471 L 579 470 L 581 470 L 581 469 L 582 468 L 586 468 L 587 467 L 594 467 Z M 674 461 L 672 461 L 671 462 L 669 462 L 668 461 L 666 461 L 665 462 L 655 462 L 655 465 L 654 466 L 650 466 L 649 467 L 649 473 L 650 473 L 651 474 L 653 474 L 653 473 L 654 472 L 656 472 L 656 469 L 657 468 L 662 468 L 665 465 L 668 465 L 669 466 L 671 466 L 671 465 L 672 464 L 674 464 Z M 787 453 L 787 455 L 788 455 L 791 457 L 791 459 L 790 460 L 788 460 L 788 462 L 791 464 L 795 464 L 796 463 L 797 463 L 797 462 L 798 461 L 810 461 L 811 462 L 813 462 L 813 459 L 814 458 L 815 458 L 815 456 L 814 455 L 812 455 L 812 458 L 811 459 L 808 459 L 805 457 L 805 454 L 802 454 L 802 458 L 801 459 L 799 459 L 798 458 L 795 458 L 794 457 L 794 456 L 792 456 L 791 455 L 791 454 L 790 453 L 790 452 L 788 452 Z M 929 444 L 929 446 L 930 446 L 931 447 L 931 449 L 938 449 L 939 450 L 939 453 L 938 454 L 937 454 L 937 455 L 936 456 L 931 456 L 931 458 L 935 458 L 936 459 L 936 460 L 939 460 L 939 458 L 940 457 L 942 457 L 943 458 L 945 458 L 945 454 L 946 453 L 949 453 L 950 454 L 952 454 L 953 453 L 955 453 L 956 454 L 956 456 L 955 457 L 955 459 L 956 460 L 956 463 L 959 463 L 959 455 L 960 454 L 960 450 L 959 450 L 958 449 L 953 449 L 952 448 L 947 448 L 946 447 L 942 447 L 941 446 L 935 446 L 934 445 L 932 445 L 931 444 Z M 970 422 L 969 424 L 967 424 L 967 427 L 974 432 L 979 433 L 980 440 L 983 441 L 983 445 L 986 452 L 984 463 L 980 472 L 976 477 L 974 483 L 977 483 L 985 487 L 987 487 L 989 485 L 990 481 L 1000 480 L 1002 483 L 1004 483 L 1005 472 L 1000 472 L 998 470 L 998 468 L 1003 467 L 1003 464 L 1005 463 L 1005 461 L 1002 460 L 1002 457 L 1006 456 L 1006 449 L 1008 445 L 1008 443 L 1006 442 L 1006 436 L 1004 435 L 1004 433 L 1002 433 L 1001 436 L 998 436 L 998 439 L 1001 439 L 1002 442 L 1000 444 L 997 444 L 995 447 L 990 448 L 989 443 L 987 442 L 988 437 L 987 431 L 988 430 L 993 431 L 993 429 L 978 427 L 974 425 L 974 422 Z M 145 418 L 145 422 L 147 422 L 148 419 L 153 420 L 151 428 L 154 430 L 154 434 L 156 434 L 157 430 L 160 430 L 167 435 L 169 443 L 173 443 L 176 447 L 180 447 L 181 445 L 186 446 L 185 449 L 181 449 L 181 451 L 174 456 L 173 461 L 170 461 L 170 463 L 174 463 L 178 469 L 183 469 L 184 473 L 186 473 L 187 468 L 194 467 L 196 470 L 212 469 L 216 473 L 218 473 L 219 470 L 221 470 L 222 473 L 238 472 L 239 475 L 245 476 L 245 472 L 240 466 L 238 458 L 234 456 L 233 450 L 227 446 L 227 438 L 223 438 L 222 440 L 201 439 L 202 435 L 209 436 L 209 434 L 206 433 L 206 429 L 213 426 L 210 417 L 214 416 L 212 409 L 209 408 L 209 403 L 199 402 L 194 398 L 193 400 L 183 399 L 177 401 L 172 406 L 165 403 L 157 404 L 157 406 L 166 406 L 166 412 L 158 414 L 157 417 Z M 208 451 L 211 449 L 217 449 L 218 450 L 226 450 L 227 449 L 229 449 L 230 450 L 230 453 L 229 454 L 228 454 L 228 456 L 230 458 L 230 459 L 231 460 L 231 461 L 235 461 L 236 462 L 236 465 L 235 466 L 232 466 L 229 469 L 227 469 L 226 470 L 224 470 L 223 469 L 223 464 L 224 463 L 225 463 L 225 461 L 224 461 L 223 460 L 221 460 L 221 464 L 220 465 L 217 465 L 216 464 L 216 463 L 215 462 L 215 461 L 213 459 L 213 458 L 208 458 L 207 457 L 207 454 L 208 453 Z M 654 389 L 653 390 L 651 390 L 650 391 L 647 391 L 647 399 L 648 400 L 648 405 L 649 406 L 649 408 L 650 409 L 650 415 L 652 417 L 654 417 L 656 419 L 658 419 L 661 416 L 661 411 L 659 411 L 658 410 L 658 407 L 659 406 L 660 406 L 660 390 L 659 390 L 658 389 Z M 586 384 L 580 384 L 580 385 L 579 386 L 576 386 L 575 385 L 575 384 L 562 384 L 561 385 L 558 385 L 557 386 L 552 386 L 551 387 L 547 387 L 546 388 L 544 388 L 543 389 L 541 389 L 540 390 L 533 390 L 532 391 L 527 391 L 527 393 L 530 393 L 531 394 L 534 394 L 535 393 L 537 393 L 538 394 L 540 394 L 541 393 L 547 393 L 548 392 L 561 392 L 562 391 L 580 391 L 580 387 L 581 386 L 586 386 Z M 249 378 L 247 378 L 245 380 L 244 380 L 241 383 L 240 383 L 238 385 L 236 385 L 235 386 L 235 388 L 234 389 L 233 389 L 230 392 L 228 392 L 227 393 L 227 395 L 226 396 L 225 396 L 225 399 L 228 399 L 229 398 L 230 398 L 239 389 L 240 389 L 243 386 L 244 386 L 247 383 L 247 382 L 249 380 Z M 459 381 L 456 381 L 455 380 L 455 375 L 453 375 L 452 377 L 450 377 L 448 375 L 445 375 L 443 371 L 440 371 L 432 374 L 428 374 L 425 376 L 420 376 L 411 379 L 411 383 L 414 385 L 414 390 L 417 390 L 417 384 L 418 383 L 424 383 L 427 386 L 429 386 L 430 389 L 427 391 L 423 391 L 423 393 L 419 395 L 418 397 L 410 398 L 407 407 L 410 406 L 413 400 L 418 399 L 419 397 L 421 397 L 424 395 L 428 395 L 437 392 L 437 388 L 436 387 L 437 384 L 440 384 L 441 387 L 449 386 L 450 387 L 450 390 L 452 390 L 452 387 L 459 383 Z M 756 368 L 750 369 L 748 375 L 738 377 L 691 381 L 665 386 L 667 405 L 678 408 L 679 415 L 681 415 L 681 408 L 677 407 L 677 404 L 680 403 L 681 393 L 682 392 L 690 393 L 695 390 L 701 390 L 702 392 L 705 392 L 707 389 L 717 389 L 718 392 L 713 393 L 713 397 L 717 398 L 721 396 L 732 397 L 733 393 L 737 393 L 738 396 L 743 396 L 743 394 L 740 393 L 741 386 L 745 382 L 749 382 L 750 386 L 753 386 L 753 383 L 755 382 L 756 378 Z M 861 368 L 837 366 L 797 368 L 795 378 L 786 397 L 784 406 L 782 407 L 779 414 L 779 423 L 776 426 L 773 439 L 778 441 L 780 437 L 784 437 L 784 426 L 789 425 L 789 420 L 791 419 L 791 415 L 793 413 L 797 415 L 797 422 L 801 424 L 802 419 L 800 411 L 805 410 L 812 403 L 811 395 L 815 392 L 816 389 L 819 389 L 822 385 L 832 387 L 832 385 L 835 384 L 836 386 L 842 387 L 843 391 L 846 391 L 847 385 L 852 385 L 857 381 L 858 378 L 862 378 Z M 244 357 L 241 357 L 239 359 L 239 361 L 238 362 L 238 364 L 237 365 L 237 374 L 242 374 L 243 373 L 243 372 L 246 369 L 247 369 L 249 367 L 250 367 L 251 366 L 251 363 L 248 363 L 244 359 Z M 888 357 L 888 363 L 893 374 L 900 375 L 906 374 L 907 371 L 924 372 L 925 370 L 933 374 L 934 370 L 940 372 L 942 365 L 952 364 L 957 366 L 959 374 L 972 373 L 975 376 L 985 376 L 987 384 L 1005 386 L 1006 380 L 1016 377 L 1017 368 L 1027 366 L 1029 357 L 1019 355 L 1016 352 L 1019 359 L 1017 364 L 1013 365 L 1009 362 L 1009 353 L 993 354 L 991 345 L 982 343 L 981 346 L 974 344 L 974 347 L 971 348 L 968 345 L 970 337 L 964 335 L 956 327 L 950 326 L 946 327 L 946 349 L 942 349 L 938 345 L 938 334 L 936 334 L 928 341 L 928 345 L 924 346 L 922 351 L 917 352 L 916 344 L 918 343 L 919 333 L 913 333 L 912 336 L 905 333 L 904 336 L 895 341 L 897 348 L 894 355 L 896 358 L 891 359 Z M 965 349 L 968 349 L 969 348 L 971 348 L 972 349 L 972 352 L 974 352 L 975 353 L 975 358 L 974 359 L 974 361 L 978 361 L 979 362 L 979 364 L 978 365 L 975 365 L 975 366 L 974 367 L 973 367 L 972 368 L 969 368 L 968 367 L 968 362 L 965 362 L 964 361 L 964 357 L 965 356 L 967 356 L 968 357 L 971 357 L 971 355 L 968 355 L 967 354 L 967 353 L 965 353 L 964 352 L 964 350 Z M 541 309 L 536 309 L 535 310 L 530 310 L 529 311 L 523 311 L 522 312 L 519 312 L 518 313 L 512 313 L 511 314 L 506 314 L 505 315 L 501 315 L 500 316 L 496 316 L 495 317 L 493 317 L 492 316 L 489 316 L 488 317 L 479 318 L 475 320 L 475 323 L 476 324 L 480 324 L 484 322 L 489 322 L 490 321 L 494 321 L 495 320 L 499 320 L 500 319 L 504 319 L 505 318 L 509 318 L 510 317 L 515 317 L 516 316 L 520 316 L 521 315 L 525 315 L 526 314 L 530 314 L 531 313 L 533 313 L 534 315 L 536 315 L 537 317 L 541 317 Z M 520 271 L 519 270 L 514 270 L 513 271 L 512 271 L 512 272 L 511 273 L 507 273 L 506 274 L 502 274 L 501 275 L 498 275 L 497 274 L 493 274 L 492 275 L 487 275 L 484 277 L 480 277 L 480 278 L 479 279 L 476 279 L 475 278 L 471 278 L 470 279 L 468 279 L 468 281 L 469 282 L 474 282 L 475 281 L 481 281 L 482 280 L 490 280 L 491 279 L 494 279 L 495 278 L 498 278 L 499 277 L 504 277 L 505 276 L 510 276 L 511 275 L 516 275 L 518 277 L 520 277 Z M 162 269 L 162 276 L 160 283 L 168 284 L 169 286 L 175 288 L 175 292 L 171 296 L 162 294 L 162 296 L 164 296 L 165 298 L 167 298 L 171 302 L 171 306 L 174 307 L 173 310 L 168 311 L 168 317 L 172 317 L 172 315 L 179 310 L 185 311 L 188 314 L 193 315 L 195 317 L 197 323 L 203 323 L 203 319 L 206 318 L 207 314 L 217 309 L 218 302 L 215 302 L 213 300 L 206 302 L 200 302 L 199 300 L 197 300 L 194 297 L 194 293 L 192 293 L 189 290 L 189 286 L 183 285 L 182 283 L 178 282 L 172 282 L 169 279 L 169 276 L 167 276 L 167 280 L 164 281 L 163 280 L 163 275 L 166 274 L 167 270 Z M 917 263 L 917 266 L 918 266 L 919 267 L 919 268 L 920 268 L 921 269 L 921 273 L 920 274 L 920 276 L 919 277 L 917 277 L 917 279 L 920 279 L 921 280 L 924 280 L 925 279 L 927 279 L 929 281 L 929 285 L 932 285 L 932 284 L 933 283 L 939 283 L 940 284 L 940 285 L 944 285 L 944 279 L 942 276 L 939 276 L 938 277 L 935 277 L 934 276 L 934 269 L 933 268 L 933 267 L 927 267 L 926 266 L 926 265 L 924 265 L 923 266 L 921 266 L 920 265 L 920 263 Z M 206 271 L 206 273 L 209 277 L 208 283 L 212 284 L 212 278 L 216 277 L 218 274 L 220 274 L 224 280 L 229 281 L 230 290 L 234 291 L 234 295 L 228 296 L 227 294 L 225 294 L 225 297 L 229 297 L 230 300 L 235 301 L 243 299 L 244 301 L 252 301 L 252 299 L 245 293 L 245 290 L 250 288 L 267 292 L 264 282 L 261 278 L 260 274 L 257 272 L 257 267 L 255 266 L 254 260 L 252 260 L 252 263 L 248 266 L 244 265 L 244 259 L 242 259 L 241 263 L 238 263 L 240 272 L 243 273 L 242 276 L 236 275 L 235 269 L 233 269 L 231 267 L 227 267 L 227 269 L 229 270 L 228 274 L 220 272 L 210 273 L 208 271 Z M 619 245 L 619 249 L 621 249 L 622 250 L 622 254 L 623 255 L 623 257 L 626 260 L 626 261 L 627 261 L 628 262 L 628 264 L 631 267 L 632 270 L 634 272 L 634 273 L 637 276 L 637 277 L 639 277 L 643 272 L 643 269 L 644 268 L 645 268 L 645 267 L 647 264 L 647 262 L 645 262 L 643 264 L 643 268 L 642 269 L 641 269 L 639 271 L 637 271 L 635 269 L 635 268 L 634 267 L 634 266 L 632 264 L 632 263 L 630 261 L 629 261 L 628 260 L 628 257 L 627 256 L 627 255 L 625 253 L 624 250 L 623 250 L 622 249 L 622 247 L 621 246 L 621 245 Z M 457 230 L 453 230 L 452 231 L 450 231 L 449 232 L 446 232 L 445 233 L 441 233 L 440 234 L 436 234 L 435 235 L 432 235 L 431 236 L 420 236 L 420 240 L 421 241 L 421 246 L 422 247 L 422 251 L 425 251 L 425 247 L 424 246 L 424 243 L 426 241 L 428 241 L 431 239 L 435 239 L 436 238 L 437 238 L 437 237 L 438 236 L 440 236 L 441 235 L 443 235 L 444 234 L 448 234 L 449 233 L 453 233 L 454 232 L 457 232 Z M 917 196 L 914 194 L 911 194 L 910 196 L 906 196 L 906 198 L 909 199 L 909 202 L 905 204 L 901 204 L 900 203 L 900 199 L 897 199 L 894 201 L 893 204 L 889 204 L 888 205 L 879 204 L 878 207 L 876 208 L 876 210 L 881 209 L 882 210 L 882 214 L 878 219 L 871 219 L 871 225 L 876 225 L 877 227 L 882 227 L 884 229 L 886 229 L 887 227 L 889 227 L 890 230 L 894 230 L 894 227 L 897 226 L 897 224 L 891 225 L 885 223 L 885 220 L 884 219 L 884 217 L 886 216 L 885 211 L 886 210 L 889 210 L 889 208 L 892 207 L 893 209 L 895 210 L 895 212 L 897 212 L 897 208 L 899 206 L 901 206 L 903 209 L 906 209 L 907 206 L 910 205 L 911 203 L 919 202 Z M 1016 193 L 1013 200 L 1007 198 L 1011 203 L 1004 207 L 1006 219 L 986 226 L 1001 227 L 1001 233 L 966 244 L 945 245 L 941 256 L 954 254 L 956 259 L 960 259 L 961 251 L 982 250 L 979 257 L 973 257 L 976 265 L 956 271 L 968 271 L 968 281 L 956 281 L 954 288 L 965 298 L 971 296 L 967 286 L 974 285 L 974 281 L 968 283 L 973 270 L 977 278 L 986 276 L 986 285 L 978 283 L 977 290 L 984 290 L 985 296 L 989 295 L 985 287 L 992 281 L 994 297 L 997 293 L 1010 294 L 1020 286 L 1023 293 L 1035 294 L 1032 302 L 1051 301 L 1048 294 L 1056 285 L 1044 287 L 1039 295 L 1024 289 L 1032 286 L 1030 269 L 1036 270 L 1038 279 L 1043 269 L 1044 277 L 1052 266 L 1044 267 L 1044 254 L 1050 253 L 1050 246 L 1028 241 L 1034 244 L 1033 249 L 1024 245 L 1016 251 L 1010 248 L 1012 232 L 1020 234 L 1021 242 L 1023 225 L 1033 224 L 1033 218 L 1038 217 L 1018 217 L 1018 224 L 1010 227 L 1008 213 L 1022 210 L 1029 203 L 1018 199 Z M 417 185 L 292 219 L 264 225 L 263 228 L 272 251 L 276 254 L 275 246 L 270 234 L 270 229 L 272 226 L 291 224 L 295 221 L 314 216 L 321 217 L 329 212 L 417 189 Z M 444 177 L 444 180 L 449 180 L 450 179 L 451 179 L 452 178 L 455 178 L 456 179 L 456 181 L 457 182 L 457 187 L 458 188 L 458 193 L 459 194 L 459 196 L 460 197 L 463 197 L 463 193 L 462 192 L 462 187 L 461 186 L 461 180 L 460 179 L 460 176 L 459 176 L 458 175 L 458 173 L 454 173 L 453 174 L 452 174 L 451 175 L 449 175 L 449 176 L 448 177 Z M 480 140 L 480 142 L 479 143 L 479 145 L 481 145 L 481 144 L 482 143 L 484 143 L 485 144 L 485 145 L 487 145 L 488 146 L 488 148 L 487 149 L 486 149 L 486 152 L 487 152 L 488 153 L 488 159 L 489 160 L 489 162 L 490 162 L 491 163 L 493 163 L 494 164 L 494 165 L 496 165 L 496 162 L 495 161 L 495 156 L 498 153 L 499 153 L 500 152 L 505 152 L 505 145 L 503 145 L 503 148 L 502 149 L 496 149 L 496 150 L 495 151 L 492 151 L 491 150 L 491 148 L 492 147 L 492 143 L 490 143 L 489 142 L 486 142 L 485 143 L 483 143 L 482 142 L 482 140 Z M 1004 170 L 997 168 L 1000 162 L 991 163 L 990 168 L 987 167 L 987 164 L 983 163 L 987 151 L 982 152 L 980 157 L 974 156 L 972 161 L 968 161 L 967 158 L 964 157 L 964 154 L 960 153 L 960 149 L 968 147 L 969 150 L 972 150 L 972 147 L 976 146 L 976 144 L 965 143 L 964 138 L 961 138 L 963 144 L 958 145 L 956 141 L 957 136 L 953 138 L 954 146 L 959 146 L 960 149 L 955 150 L 950 158 L 946 158 L 944 164 L 942 164 L 941 159 L 939 159 L 934 173 L 927 173 L 927 170 L 931 169 L 931 167 L 928 169 L 922 167 L 922 176 L 916 173 L 915 177 L 909 177 L 906 181 L 900 180 L 899 186 L 921 185 L 924 198 L 930 198 L 932 195 L 935 195 L 937 190 L 941 190 L 951 183 L 958 183 L 959 181 L 975 179 L 976 181 L 986 179 L 989 181 L 992 177 L 995 179 L 1001 178 L 1001 175 L 1004 174 Z"/>
<path fill="rgb(252,217,9)" d="M 360 596 L 360 597 L 359 598 L 358 598 L 358 626 L 359 627 L 359 632 L 360 632 L 361 633 L 363 633 L 364 632 L 365 632 L 365 631 L 366 630 L 367 630 L 368 629 L 369 629 L 369 619 L 368 618 L 368 605 L 366 605 L 365 604 L 365 598 L 363 596 Z M 291 581 L 287 581 L 286 582 L 284 582 L 284 583 L 283 584 L 281 584 L 280 585 L 277 585 L 276 586 L 275 586 L 275 588 L 276 588 L 277 589 L 277 592 L 276 593 L 273 593 L 273 596 L 274 597 L 276 597 L 276 596 L 277 595 L 279 595 L 280 594 L 283 594 L 284 595 L 284 597 L 281 599 L 281 601 L 282 602 L 285 602 L 285 601 L 286 600 L 286 596 L 287 595 L 287 588 L 288 587 L 291 587 L 292 588 L 292 590 L 291 591 L 291 594 L 293 594 L 295 592 L 295 588 L 292 588 L 291 587 Z M 929 537 L 927 537 L 926 538 L 921 538 L 921 561 L 922 562 L 922 563 L 923 564 L 923 565 L 925 565 L 925 564 L 927 562 L 929 562 L 929 561 L 930 560 L 930 545 L 929 544 Z M 286 373 L 283 375 L 283 377 L 281 379 L 277 380 L 277 383 L 280 389 L 297 416 L 311 444 L 315 446 L 315 450 L 321 460 L 323 461 L 332 460 L 332 456 L 328 452 L 327 446 L 322 446 L 320 443 L 319 430 L 318 429 L 319 424 L 316 423 L 316 421 L 314 420 L 313 416 L 314 408 L 307 408 L 306 406 L 304 406 L 301 403 L 301 397 L 298 396 L 297 383 L 294 380 L 293 377 L 290 377 L 288 373 Z M 312 340 L 312 342 L 313 343 L 314 343 L 316 346 L 318 346 L 323 351 L 326 351 L 327 352 L 327 355 L 326 356 L 326 358 L 327 359 L 327 361 L 328 362 L 328 365 L 332 365 L 335 367 L 335 369 L 336 369 L 337 370 L 339 370 L 339 368 L 338 368 L 335 366 L 335 362 L 336 361 L 336 359 L 335 358 L 332 358 L 331 357 L 331 356 L 329 353 L 329 351 L 328 351 L 327 350 L 327 348 L 325 346 L 323 346 L 322 345 L 322 343 L 323 342 L 326 342 L 326 340 L 323 340 L 323 341 L 322 342 L 318 342 L 315 340 Z M 540 319 L 538 319 L 536 317 L 534 317 L 534 330 L 533 331 L 531 331 L 530 332 L 526 332 L 525 333 L 522 333 L 521 334 L 515 334 L 515 336 L 517 336 L 519 338 L 519 339 L 524 339 L 525 340 L 530 340 L 531 339 L 540 339 Z M 928 306 L 928 308 L 929 309 L 933 309 L 935 311 L 938 311 L 940 313 L 940 314 L 943 314 L 944 315 L 944 318 L 947 318 L 948 316 L 950 316 L 952 318 L 968 318 L 969 319 L 969 322 L 973 322 L 974 323 L 992 323 L 992 321 L 989 321 L 988 320 L 979 320 L 976 318 L 976 316 L 978 314 L 981 313 L 981 309 L 979 308 L 974 308 L 973 307 L 973 305 L 969 303 L 968 301 L 966 300 L 952 300 L 952 303 L 951 304 L 946 304 L 944 306 L 941 306 L 940 305 L 937 305 L 936 306 Z M 277 250 L 277 261 L 278 262 L 278 265 L 279 266 L 279 267 L 280 268 L 280 269 L 281 270 L 281 272 L 282 273 L 282 275 L 283 276 L 283 277 L 286 277 L 287 276 L 288 276 L 289 275 L 290 275 L 291 274 L 293 274 L 294 273 L 294 270 L 293 269 L 290 269 L 289 270 L 286 270 L 285 269 L 285 268 L 284 267 L 284 265 L 283 264 L 283 262 L 282 261 L 282 260 L 281 259 L 281 256 L 280 255 L 280 253 L 279 252 L 279 250 Z M 733 248 L 730 248 L 727 286 L 724 299 L 724 317 L 722 318 L 721 339 L 707 341 L 687 341 L 687 346 L 690 346 L 691 348 L 698 348 L 699 345 L 702 345 L 703 347 L 734 345 L 734 339 L 728 338 L 728 320 L 731 296 Z M 534 221 L 492 227 L 425 243 L 426 267 L 440 324 L 442 319 L 433 286 L 431 262 L 436 262 L 451 324 L 455 324 L 456 311 L 463 310 L 468 314 L 468 324 L 474 327 L 470 299 L 473 292 L 478 289 L 486 290 L 491 286 L 513 284 L 520 288 L 516 276 L 469 283 L 464 260 L 537 243 Z M 728 210 L 683 204 L 639 278 L 597 217 L 590 217 L 589 223 L 563 223 L 563 217 L 554 217 L 551 253 L 555 312 L 560 312 L 560 289 L 565 289 L 567 297 L 568 290 L 576 294 L 580 287 L 586 294 L 584 312 L 589 319 L 585 331 L 560 332 L 556 325 L 556 334 L 593 335 L 593 272 L 609 291 L 610 298 L 610 287 L 624 286 L 627 282 L 642 285 L 646 278 L 663 279 L 665 289 L 680 268 L 682 290 L 691 281 L 693 292 L 706 293 L 713 232 L 719 214 Z M 574 241 L 576 241 L 577 242 L 577 244 L 578 245 L 578 247 L 577 248 L 577 250 L 578 251 L 578 266 L 577 267 L 574 267 L 573 266 L 573 263 L 572 262 L 572 260 L 571 259 L 571 255 L 572 254 L 572 243 Z M 454 181 L 280 228 L 288 254 L 328 243 L 343 244 L 345 256 L 349 257 L 351 291 L 371 353 L 374 347 L 358 293 L 370 295 L 388 289 L 397 325 L 405 324 L 411 342 L 416 341 L 403 290 L 393 272 L 387 242 L 392 234 L 400 233 L 408 223 L 416 228 L 426 220 L 434 222 L 464 213 L 462 200 L 455 196 Z M 314 172 L 314 174 L 317 174 L 318 175 L 318 178 L 317 179 L 316 179 L 316 182 L 318 182 L 319 183 L 321 183 L 322 184 L 324 184 L 325 185 L 325 187 L 324 188 L 324 191 L 327 191 L 328 190 L 331 190 L 331 186 L 330 185 L 330 181 L 328 181 L 326 179 L 323 179 L 322 178 L 322 174 L 318 174 L 317 173 L 317 172 Z M 484 167 L 484 169 L 483 170 L 480 170 L 480 171 L 479 172 L 479 178 L 480 179 L 480 183 L 481 184 L 481 189 L 486 189 L 487 188 L 490 188 L 491 187 L 495 187 L 495 185 L 496 184 L 498 184 L 498 180 L 497 179 L 497 175 L 496 174 L 496 170 L 491 170 L 490 171 L 488 171 L 487 170 L 487 167 Z M 334 139 L 332 139 L 332 141 L 333 142 L 333 148 L 332 149 L 331 149 L 330 150 L 323 150 L 322 149 L 322 147 L 321 146 L 319 146 L 319 151 L 316 153 L 316 156 L 315 157 L 312 157 L 311 156 L 309 156 L 309 158 L 310 159 L 310 162 L 317 162 L 318 163 L 318 164 L 322 164 L 322 160 L 323 159 L 323 157 L 324 156 L 329 156 L 330 155 L 334 155 L 335 156 L 337 156 L 338 155 L 339 155 L 339 152 L 337 152 L 336 151 L 336 149 L 337 148 L 337 145 L 336 144 L 336 143 L 335 143 L 334 142 Z M 246 141 L 246 148 L 248 149 L 248 154 L 251 154 L 251 146 L 252 145 L 258 145 L 259 146 L 258 155 L 254 157 L 254 160 L 255 161 L 260 161 L 265 165 L 274 165 L 275 167 L 281 167 L 282 169 L 284 169 L 285 168 L 291 168 L 292 169 L 293 174 L 298 173 L 298 171 L 296 171 L 295 170 L 295 168 L 293 167 L 293 165 L 291 165 L 287 163 L 287 159 L 285 158 L 285 156 L 286 155 L 292 156 L 292 154 L 290 153 L 283 153 L 282 152 L 282 147 L 279 147 L 278 146 L 278 142 L 269 142 L 266 139 L 262 139 L 260 138 L 259 136 L 254 137 L 252 140 L 247 140 Z M 465 151 L 462 145 L 451 139 L 449 135 L 441 137 L 440 134 L 437 134 L 432 130 L 431 126 L 428 126 L 425 123 L 413 123 L 412 121 L 407 121 L 404 125 L 398 125 L 397 130 L 393 133 L 382 132 L 379 134 L 378 131 L 375 131 L 375 140 L 370 141 L 370 147 L 363 148 L 359 152 L 358 156 L 353 156 L 352 151 L 344 149 L 344 153 L 349 153 L 350 157 L 354 157 L 357 164 L 355 165 L 355 170 L 349 170 L 348 173 L 345 173 L 343 168 L 337 167 L 337 169 L 340 170 L 340 175 L 334 178 L 334 182 L 336 183 L 336 188 L 357 183 L 358 179 L 361 179 L 362 181 L 374 179 L 376 177 L 431 163 L 449 156 L 463 154 Z M 408 147 L 409 148 L 409 156 L 408 157 L 407 157 L 407 158 L 406 159 L 405 159 L 405 160 L 403 162 L 398 162 L 397 161 L 397 159 L 398 158 L 399 158 L 399 153 L 400 152 L 402 152 L 402 148 L 403 147 Z M 394 142 L 395 143 L 395 145 L 396 145 L 397 146 L 397 149 L 396 150 L 395 150 L 395 152 L 396 153 L 396 155 L 395 156 L 391 156 L 390 157 L 390 158 L 389 159 L 389 164 L 388 165 L 383 165 L 382 164 L 382 163 L 379 163 L 378 162 L 378 160 L 376 158 L 376 155 L 377 154 L 379 154 L 380 153 L 384 153 L 384 151 L 385 150 L 391 150 L 391 143 L 392 142 Z"/>
<path fill="rgb(245,163,11)" d="M 321 570 L 321 572 L 328 572 L 329 573 L 329 577 L 332 578 L 333 583 L 336 585 L 336 588 L 338 588 L 339 590 L 341 591 L 341 593 L 344 594 L 352 593 L 354 596 L 356 596 L 357 594 L 364 594 L 365 597 L 369 597 L 370 598 L 370 601 L 367 602 L 367 604 L 372 604 L 372 600 L 374 599 L 374 596 L 375 595 L 380 596 L 380 593 L 382 592 L 382 578 L 383 577 L 382 574 L 374 575 L 370 573 L 369 571 L 366 570 L 358 571 L 357 569 L 355 568 L 353 568 L 352 571 L 347 572 L 346 574 L 344 574 L 342 572 L 343 566 L 341 566 L 341 568 L 339 569 L 339 575 L 338 576 L 336 576 L 335 574 L 332 573 L 332 568 L 330 568 L 328 570 Z M 351 577 L 352 576 L 355 576 L 356 577 L 360 577 L 361 578 L 361 579 L 365 579 L 366 580 L 366 582 L 368 584 L 368 589 L 365 592 L 363 592 L 362 591 L 361 591 L 360 590 L 360 586 L 357 586 L 356 585 L 356 583 L 355 582 L 355 580 L 352 580 L 351 579 Z M 277 569 L 276 576 L 272 578 L 272 581 L 276 581 L 277 584 L 280 584 L 280 581 L 277 580 L 277 577 L 278 576 L 286 577 L 287 579 L 290 579 L 293 582 L 295 582 L 297 585 L 300 585 L 301 586 L 301 589 L 303 589 L 305 587 L 304 584 L 305 579 L 306 578 L 309 578 L 312 581 L 313 597 L 316 597 L 318 602 L 321 602 L 322 605 L 325 605 L 323 599 L 323 587 L 324 586 L 328 586 L 328 583 L 327 583 L 326 581 L 322 581 L 321 580 L 321 576 L 318 576 L 317 575 L 317 570 L 309 570 L 308 568 L 297 565 L 297 568 L 296 569 L 288 568 L 288 573 L 285 574 L 284 573 L 284 569 L 281 568 Z M 416 560 L 414 586 L 422 594 L 423 599 L 432 604 L 438 595 L 446 595 L 448 603 L 451 603 L 464 591 L 465 597 L 461 603 L 463 609 L 470 610 L 470 616 L 467 620 L 478 616 L 480 605 L 490 607 L 490 603 L 493 602 L 494 605 L 500 606 L 510 600 L 524 603 L 521 595 L 523 584 L 520 588 L 503 593 L 504 583 L 496 584 L 494 578 L 474 582 L 467 587 L 459 584 L 462 579 L 477 574 L 477 571 L 452 579 L 451 573 L 456 568 L 457 562 L 469 555 L 474 555 L 469 549 L 465 549 L 447 568 L 438 569 L 438 572 L 444 574 L 445 577 L 443 581 L 438 581 L 436 586 L 429 584 L 422 566 L 423 561 Z M 1059 392 L 1059 395 L 1061 395 L 1062 396 L 1062 397 L 1065 397 L 1066 398 L 1080 398 L 1081 399 L 1082 399 L 1083 400 L 1089 400 L 1089 399 L 1090 398 L 1090 394 L 1088 394 L 1087 393 L 1080 393 L 1079 392 Z M 299 367 L 297 370 L 291 370 L 291 374 L 295 376 L 295 380 L 298 383 L 299 395 L 303 398 L 303 400 L 305 400 L 307 390 L 309 390 L 312 394 L 312 398 L 316 406 L 316 416 L 320 416 L 322 419 L 322 422 L 320 423 L 319 427 L 320 437 L 325 438 L 325 441 L 329 447 L 329 452 L 331 453 L 331 455 L 335 456 L 335 458 L 332 461 L 323 463 L 322 461 L 318 460 L 324 473 L 327 474 L 328 472 L 351 462 L 351 459 L 348 456 L 342 442 L 339 440 L 339 437 L 315 391 L 307 380 L 306 374 L 303 372 L 302 368 Z M 456 313 L 457 319 L 455 326 L 455 332 L 466 333 L 469 331 L 473 331 L 474 332 L 474 339 L 470 340 L 470 342 L 487 341 L 496 343 L 499 342 L 499 338 L 500 337 L 504 337 L 506 343 L 509 343 L 511 341 L 518 341 L 518 338 L 514 336 L 514 332 L 515 331 L 525 332 L 527 329 L 531 329 L 531 320 L 525 320 L 524 322 L 518 322 L 511 324 L 507 324 L 506 323 L 488 324 L 486 326 L 475 326 L 474 329 L 471 329 L 469 325 L 465 324 L 465 322 L 467 321 L 467 318 L 464 317 L 466 312 L 457 311 Z M 1004 312 L 1008 312 L 1009 313 L 1011 313 L 1012 312 L 1015 312 L 1016 313 L 1019 313 L 1020 312 L 1021 312 L 1021 310 L 1022 309 L 1032 309 L 1033 310 L 1039 310 L 1040 311 L 1040 313 L 1042 313 L 1042 311 L 1044 308 L 1045 308 L 1046 307 L 1049 307 L 1050 308 L 1054 308 L 1054 305 L 1045 305 L 1044 304 L 1032 304 L 1031 303 L 1029 303 L 1029 304 L 1028 305 L 1025 305 L 1022 303 L 1019 303 L 1019 305 L 1018 306 L 1014 306 L 1014 308 L 1013 309 L 1004 309 Z M 359 293 L 359 295 L 360 296 L 360 298 L 361 299 L 361 304 L 362 305 L 363 310 L 364 310 L 365 311 L 365 315 L 367 315 L 369 317 L 369 319 L 370 320 L 370 321 L 371 321 L 372 322 L 377 322 L 378 323 L 383 323 L 384 322 L 386 322 L 388 325 L 391 325 L 392 324 L 395 324 L 395 321 L 394 320 L 394 316 L 393 315 L 393 308 L 392 307 L 392 306 L 390 303 L 390 301 L 389 300 L 389 296 L 388 295 L 388 290 L 386 290 L 385 291 L 385 293 L 384 294 L 379 294 L 378 295 L 375 295 L 374 294 L 372 294 L 372 297 L 371 298 L 369 298 L 368 297 L 363 297 L 362 296 L 361 293 Z M 580 288 L 578 288 L 578 293 L 576 295 L 573 295 L 572 294 L 572 291 L 568 291 L 568 297 L 566 299 L 564 299 L 563 298 L 563 295 L 564 294 L 564 289 L 561 289 L 561 312 L 558 315 L 557 315 L 557 324 L 559 325 L 559 330 L 560 331 L 564 331 L 565 320 L 567 317 L 584 317 L 584 313 L 583 312 L 583 304 L 582 303 L 582 301 L 583 300 L 585 300 L 585 296 L 584 296 L 580 292 Z M 514 286 L 513 285 L 510 285 L 507 287 L 498 287 L 497 288 L 489 288 L 488 289 L 487 289 L 487 290 L 486 291 L 481 291 L 480 290 L 478 290 L 476 292 L 476 293 L 475 294 L 473 294 L 473 297 L 478 297 L 479 296 L 485 296 L 486 295 L 490 295 L 491 294 L 495 294 L 496 293 L 501 293 L 502 292 L 506 292 L 507 291 L 510 291 L 511 290 L 514 290 Z M 434 281 L 434 286 L 436 287 L 436 289 L 437 290 L 437 298 L 438 299 L 438 304 L 440 306 L 440 309 L 441 310 L 441 315 L 443 319 L 443 327 L 445 331 L 445 334 L 446 335 L 446 339 L 447 340 L 447 343 L 448 344 L 448 346 L 451 346 L 451 343 L 449 339 L 449 331 L 448 330 L 448 321 L 449 320 L 449 318 L 448 317 L 448 315 L 447 314 L 447 312 L 446 311 L 446 309 L 444 305 L 444 301 L 443 300 L 443 297 L 442 296 L 442 292 L 441 291 L 441 288 L 440 287 L 440 283 L 439 281 Z M 662 280 L 656 281 L 654 279 L 651 279 L 651 281 L 650 282 L 648 282 L 647 283 L 643 283 L 643 286 L 642 287 L 626 285 L 622 288 L 611 288 L 611 290 L 613 294 L 613 302 L 615 304 L 615 305 L 617 305 L 619 307 L 619 311 L 623 313 L 623 316 L 625 317 L 625 320 L 627 320 L 627 318 L 626 317 L 626 310 L 627 309 L 643 309 L 644 310 L 646 310 L 647 312 L 650 312 L 651 311 L 651 310 L 655 305 L 656 302 L 661 296 L 661 294 L 662 293 L 662 287 L 664 286 L 664 284 L 662 282 Z M 275 229 L 276 239 L 277 241 L 279 242 L 281 249 L 282 259 L 284 262 L 286 269 L 297 268 L 298 267 L 304 268 L 312 265 L 312 260 L 314 259 L 316 256 L 324 256 L 333 252 L 334 249 L 337 250 L 337 255 L 342 254 L 342 250 L 338 250 L 337 249 L 337 247 L 338 246 L 341 246 L 341 244 L 335 244 L 334 245 L 328 244 L 325 245 L 324 247 L 309 249 L 307 250 L 306 252 L 300 253 L 296 255 L 288 255 L 285 248 L 284 248 L 282 245 L 280 239 L 279 230 Z M 214 227 L 212 227 L 211 228 L 209 228 L 206 226 L 204 226 L 204 227 L 202 230 L 200 230 L 199 229 L 197 229 L 197 231 L 198 232 L 204 232 L 205 233 L 205 235 L 204 236 L 202 236 L 201 237 L 198 237 L 198 239 L 199 240 L 199 243 L 200 244 L 200 247 L 202 247 L 203 248 L 205 248 L 205 246 L 204 246 L 203 245 L 203 243 L 204 242 L 204 239 L 206 237 L 208 237 L 209 238 L 209 240 L 211 240 L 212 239 L 212 231 L 213 230 L 214 230 Z M 733 213 L 722 212 L 717 221 L 715 230 L 717 235 L 715 247 L 712 248 L 710 275 L 707 286 L 708 295 L 701 296 L 693 293 L 692 284 L 690 284 L 689 288 L 686 288 L 685 296 L 682 300 L 680 343 L 684 343 L 684 339 L 689 338 L 689 335 L 686 334 L 688 326 L 692 326 L 694 329 L 700 330 L 712 327 L 721 327 L 720 310 L 723 309 L 723 287 L 726 286 L 729 246 L 728 244 L 719 244 L 718 237 L 724 236 L 725 239 L 730 239 Z M 206 217 L 210 217 L 212 219 L 212 223 L 216 223 L 217 224 L 217 226 L 226 227 L 226 225 L 227 224 L 237 224 L 237 222 L 230 222 L 228 220 L 228 218 L 229 217 L 232 217 L 234 216 L 234 213 L 232 213 L 231 211 L 229 211 L 228 210 L 228 207 L 229 206 L 234 206 L 235 207 L 235 209 L 236 209 L 239 213 L 242 213 L 245 211 L 250 211 L 250 209 L 248 209 L 245 207 L 243 204 L 241 204 L 240 206 L 233 206 L 232 204 L 230 203 L 230 200 L 225 200 L 225 205 L 224 206 L 220 206 L 218 209 L 213 209 L 212 208 L 212 205 L 214 204 L 214 202 L 213 201 L 210 201 L 209 202 L 209 211 L 206 213 Z M 831 125 L 825 124 L 826 131 L 814 133 L 809 139 L 807 135 L 802 136 L 799 133 L 798 125 L 793 124 L 793 117 L 787 120 L 783 116 L 786 106 L 781 106 L 773 113 L 768 111 L 759 113 L 752 107 L 750 117 L 744 118 L 741 125 L 729 131 L 730 137 L 724 140 L 722 148 L 726 149 L 728 158 L 732 158 L 733 154 L 745 155 L 750 150 L 750 160 L 758 163 L 768 162 L 773 175 L 772 184 L 776 186 L 776 189 L 771 190 L 770 193 L 774 193 L 775 190 L 780 189 L 779 182 L 782 181 L 783 168 L 792 140 L 812 145 L 804 161 L 804 167 L 795 171 L 790 177 L 792 180 L 803 184 L 815 181 L 818 174 L 824 171 L 831 172 L 831 166 L 837 158 L 843 160 L 841 153 L 835 150 L 829 158 L 826 158 L 825 163 L 814 164 L 828 132 L 832 130 Z"/>
<path fill="rgb(244,236,229)" d="M 824 536 L 813 526 L 781 520 L 685 519 L 609 529 L 596 527 L 515 547 L 487 558 L 529 547 L 562 543 L 576 545 L 600 540 L 601 537 L 612 539 L 613 536 L 649 533 L 752 535 L 804 543 L 814 548 L 824 542 Z M 363 470 L 357 470 L 356 471 L 352 471 L 351 472 L 348 472 L 347 473 L 346 473 L 345 474 L 344 474 L 343 475 L 342 475 L 341 476 L 340 476 L 339 477 L 338 477 L 337 478 L 334 479 L 329 483 L 328 483 L 327 484 L 324 485 L 322 487 L 321 487 L 320 488 L 320 491 L 323 491 L 324 492 L 326 492 L 327 491 L 330 490 L 332 488 L 333 488 L 334 487 L 337 486 L 339 484 L 340 484 L 341 483 L 342 483 L 343 482 L 344 482 L 345 481 L 346 481 L 347 480 L 348 480 L 349 479 L 350 479 L 351 478 L 352 478 L 353 477 L 354 477 L 355 476 L 356 476 L 357 475 L 358 475 L 361 473 L 363 473 Z M 746 457 L 740 457 L 739 458 L 730 458 L 729 459 L 723 459 L 722 460 L 717 460 L 716 461 L 711 461 L 710 462 L 704 462 L 703 463 L 699 463 L 698 464 L 693 464 L 692 465 L 687 465 L 687 467 L 695 467 L 696 468 L 704 468 L 705 467 L 706 467 L 706 466 L 707 465 L 709 465 L 710 466 L 719 466 L 719 465 L 721 463 L 727 463 L 728 462 L 738 462 L 739 461 L 746 461 Z M 871 434 L 871 436 L 874 436 L 876 438 L 899 438 L 900 439 L 913 439 L 914 440 L 922 440 L 923 441 L 932 441 L 933 442 L 936 442 L 937 443 L 940 443 L 941 444 L 946 444 L 947 445 L 950 445 L 950 440 L 947 440 L 946 439 L 943 439 L 942 438 L 939 438 L 938 437 L 926 436 L 925 435 L 914 435 L 913 434 L 896 434 L 895 433 L 891 433 L 890 434 Z M 726 419 L 722 419 L 721 420 L 711 420 L 710 421 L 700 421 L 699 422 L 690 422 L 689 423 L 683 423 L 683 425 L 685 425 L 686 426 L 686 427 L 691 427 L 692 426 L 700 426 L 701 425 L 711 425 L 712 424 L 726 424 Z M 524 388 L 519 388 L 518 389 L 516 389 L 515 390 L 512 390 L 511 391 L 509 391 L 508 392 L 506 392 L 505 393 L 503 393 L 502 394 L 500 394 L 499 395 L 497 395 L 496 396 L 494 396 L 493 397 L 493 401 L 494 402 L 494 405 L 497 405 L 497 400 L 499 398 L 501 398 L 502 397 L 504 397 L 505 396 L 507 396 L 508 395 L 510 395 L 511 394 L 514 394 L 515 393 L 516 393 L 517 392 L 522 392 L 523 391 L 524 391 Z M 794 369 L 792 369 L 785 384 L 781 397 L 775 410 L 774 415 L 757 458 L 754 470 L 751 476 L 751 479 L 754 479 L 759 467 L 762 456 L 772 432 L 779 410 L 795 374 Z M 511 375 L 511 377 L 518 378 L 520 376 L 523 376 L 524 375 L 538 374 L 545 372 L 553 372 L 554 371 L 580 371 L 581 372 L 598 373 L 602 375 L 611 377 L 618 381 L 621 381 L 620 378 L 612 373 L 610 373 L 605 370 L 602 370 L 593 367 L 588 367 L 587 366 L 553 366 L 552 367 L 546 367 L 540 369 L 529 370 L 525 372 Z M 759 360 L 717 363 L 641 375 L 643 443 L 647 442 L 647 380 L 658 377 L 690 373 L 694 371 L 758 364 Z M 474 356 L 471 356 L 470 357 L 466 357 L 465 358 L 462 358 L 461 359 L 457 359 L 456 360 L 453 360 L 452 361 L 450 361 L 449 362 L 445 362 L 444 363 L 442 363 L 439 365 L 437 365 L 437 366 L 435 368 L 432 368 L 431 367 L 428 367 L 427 368 L 426 368 L 425 369 L 425 370 L 423 372 L 421 372 L 421 374 L 425 374 L 426 373 L 428 373 L 429 372 L 433 372 L 434 371 L 436 371 L 437 370 L 440 370 L 441 369 L 443 369 L 444 368 L 447 368 L 448 367 L 450 367 L 451 366 L 454 366 L 455 365 L 457 365 L 458 364 L 460 364 L 461 363 L 464 363 L 465 362 L 468 362 L 469 361 L 473 361 L 473 360 L 474 359 Z M 303 354 L 296 354 L 295 355 L 292 355 L 291 356 L 289 356 L 288 357 L 286 357 L 285 358 L 283 358 L 280 360 L 278 360 L 275 362 L 273 362 L 272 363 L 271 363 L 269 365 L 268 365 L 267 366 L 266 366 L 265 367 L 264 367 L 263 368 L 260 369 L 258 371 L 257 371 L 256 372 L 253 373 L 253 376 L 254 377 L 256 377 L 258 375 L 259 375 L 261 373 L 264 372 L 266 370 L 267 370 L 268 369 L 269 369 L 274 366 L 276 366 L 281 363 L 283 363 L 284 362 L 286 362 L 289 360 L 291 360 L 292 359 L 294 359 L 295 358 L 298 358 L 299 357 L 303 357 Z M 778 354 L 779 357 L 796 357 L 800 355 L 824 352 L 857 350 L 861 359 L 864 375 L 874 408 L 876 409 L 877 416 L 879 416 L 878 411 L 876 410 L 875 400 L 864 367 L 858 343 L 807 348 Z M 288 348 L 285 345 L 284 345 L 283 344 L 281 344 L 278 342 L 273 342 L 272 341 L 269 341 L 268 342 L 263 342 L 262 343 L 259 343 L 258 344 L 256 344 L 255 345 L 253 345 L 251 347 L 250 347 L 249 348 L 247 348 L 247 351 L 245 353 L 245 358 L 247 360 L 247 361 L 248 361 L 249 362 L 251 362 L 252 363 L 254 363 L 255 364 L 257 364 L 259 362 L 260 362 L 261 361 L 262 361 L 263 360 L 264 360 L 267 358 L 269 358 L 270 357 L 271 357 L 274 355 L 276 355 L 277 354 L 278 354 L 281 352 L 283 352 L 284 351 L 287 351 L 288 350 Z M 232 319 L 232 322 L 233 322 L 234 323 L 234 324 L 237 327 L 237 328 L 238 329 L 238 330 L 239 331 L 239 332 L 241 334 L 241 335 L 242 336 L 242 339 L 245 342 L 247 342 L 248 341 L 250 341 L 251 340 L 252 340 L 253 339 L 253 337 L 252 336 L 252 334 L 251 333 L 251 332 L 250 331 L 250 330 L 248 328 L 248 327 L 247 326 L 247 325 L 246 324 L 246 323 L 245 322 L 245 321 L 244 320 L 244 318 L 243 317 L 243 316 L 241 316 L 240 317 L 238 317 L 237 318 L 236 318 L 235 319 Z M 885 246 L 865 245 L 863 247 L 842 282 L 838 291 L 834 294 L 830 294 L 830 302 L 826 315 L 826 320 L 835 321 L 841 310 L 845 306 L 867 302 L 868 303 L 868 326 L 883 323 L 883 300 L 891 298 L 892 288 L 887 289 L 882 286 Z M 869 266 L 870 267 L 870 270 L 869 271 L 869 289 L 867 291 L 861 291 L 860 292 L 854 292 L 853 291 L 853 288 L 854 287 L 854 286 L 856 284 L 856 283 L 858 281 L 858 280 L 859 279 L 859 278 L 861 276 L 861 275 L 862 274 L 862 273 L 864 271 L 864 270 L 866 268 L 866 267 L 867 266 Z M 836 244 L 822 244 L 820 246 L 810 284 L 807 283 L 797 252 L 781 252 L 775 273 L 766 320 L 774 319 L 780 316 L 789 279 L 792 280 L 797 298 L 805 316 L 818 314 L 824 282 L 835 252 Z"/>
<path fill="rgb(235,99,11)" d="M 302 540 L 302 545 L 301 546 L 298 546 L 298 548 L 299 548 L 300 549 L 300 552 L 303 552 L 304 553 L 304 557 L 303 558 L 302 558 L 302 561 L 304 561 L 305 562 L 305 564 L 307 564 L 308 563 L 312 563 L 312 561 L 311 560 L 310 560 L 309 559 L 309 556 L 308 556 L 307 555 L 307 552 L 308 551 L 310 551 L 310 540 Z M 471 332 L 469 332 L 468 333 L 467 333 L 466 334 L 460 334 L 459 335 L 454 335 L 452 337 L 451 337 L 451 339 L 452 340 L 452 343 L 455 343 L 456 344 L 459 344 L 460 343 L 462 343 L 462 341 L 463 340 L 465 340 L 465 339 L 466 338 L 469 338 L 469 337 L 470 336 L 471 336 Z M 969 327 L 969 329 L 971 331 L 971 335 L 972 336 L 972 340 L 974 342 L 974 343 L 981 343 L 982 342 L 987 342 L 988 341 L 988 340 L 989 339 L 991 339 L 991 336 L 990 336 L 989 335 L 988 335 L 987 334 L 987 333 L 985 333 L 985 334 L 984 335 L 982 335 L 981 336 L 980 336 L 979 337 L 979 338 L 978 339 L 975 339 L 974 338 L 974 337 L 973 336 L 973 333 L 972 332 L 972 327 Z M 690 327 L 690 337 L 691 338 L 691 339 L 718 339 L 718 328 L 712 328 L 711 329 L 709 329 L 708 330 L 706 330 L 705 331 L 702 331 L 701 332 L 696 332 L 695 331 L 694 331 L 693 330 L 693 328 L 692 327 Z M 368 323 L 368 325 L 370 328 L 371 334 L 374 340 L 374 343 L 375 344 L 376 349 L 377 351 L 380 353 L 380 355 L 383 358 L 383 362 L 384 362 L 386 364 L 387 366 L 387 369 L 389 369 L 395 366 L 397 364 L 400 364 L 404 361 L 410 358 L 415 357 L 415 355 L 412 353 L 411 347 L 403 348 L 401 346 L 400 346 L 399 344 L 397 344 L 395 342 L 396 337 L 393 337 L 392 336 L 392 332 L 389 332 L 388 331 L 388 326 L 387 325 L 385 325 L 384 326 L 374 326 L 372 323 Z M 566 320 L 566 328 L 567 329 L 567 330 L 579 330 L 580 329 L 582 329 L 582 327 L 583 326 L 585 326 L 585 321 L 584 321 L 583 320 Z M 169 249 L 168 254 L 169 260 L 167 268 L 171 270 L 171 272 L 173 273 L 173 275 L 177 280 L 184 281 L 193 285 L 194 290 L 207 291 L 215 293 L 217 288 L 213 289 L 207 288 L 207 283 L 205 281 L 206 274 L 204 272 L 204 269 L 205 268 L 216 269 L 217 267 L 219 267 L 220 270 L 223 271 L 223 268 L 220 267 L 222 257 L 224 257 L 225 261 L 228 261 L 229 265 L 232 267 L 236 266 L 236 262 L 230 261 L 229 259 L 225 258 L 224 254 L 219 255 L 218 253 L 213 253 L 211 251 L 211 249 L 196 248 L 186 245 L 177 246 L 175 251 L 173 251 L 172 249 Z M 845 196 L 844 196 L 843 195 L 840 195 L 839 194 L 837 194 L 836 195 L 835 195 L 835 196 L 834 197 L 832 197 L 832 199 L 831 200 L 826 200 L 826 203 L 827 203 L 828 204 L 828 210 L 827 211 L 825 211 L 825 213 L 827 213 L 827 212 L 828 211 L 833 211 L 833 209 L 832 208 L 832 206 L 833 205 L 837 205 L 838 204 L 838 202 L 837 201 L 836 201 L 835 200 L 835 198 L 836 197 L 840 197 L 841 198 L 845 198 Z M 892 174 L 888 174 L 888 175 L 886 176 L 885 178 L 883 178 L 883 180 L 882 181 L 880 181 L 879 183 L 877 183 L 877 187 L 876 188 L 874 188 L 873 190 L 871 190 L 871 192 L 875 192 L 876 193 L 876 195 L 874 197 L 870 197 L 869 195 L 866 195 L 865 197 L 860 196 L 860 198 L 861 199 L 864 199 L 865 200 L 865 204 L 871 204 L 871 200 L 872 199 L 874 199 L 877 201 L 880 201 L 881 199 L 883 199 L 884 200 L 888 200 L 888 198 L 889 197 L 891 197 L 892 196 L 900 196 L 901 195 L 903 195 L 903 193 L 902 192 L 900 192 L 899 193 L 896 193 L 895 192 L 895 189 L 894 189 L 892 187 L 892 184 L 893 183 L 893 181 L 891 181 L 890 180 L 890 178 L 892 177 Z M 916 150 L 914 149 L 914 147 L 911 147 L 910 144 L 907 143 L 906 141 L 906 137 L 904 137 L 904 139 L 901 141 L 898 145 L 897 145 L 897 155 L 898 156 L 897 159 L 895 159 L 893 156 L 886 155 L 885 154 L 886 149 L 883 149 L 879 154 L 877 154 L 877 159 L 875 160 L 875 163 L 878 163 L 881 161 L 884 161 L 885 162 L 885 165 L 887 165 L 887 161 L 888 160 L 894 159 L 895 162 L 900 162 L 900 159 L 903 158 L 906 160 L 907 168 L 906 169 L 903 169 L 902 167 L 900 167 L 898 170 L 896 170 L 897 175 L 899 175 L 899 172 L 900 171 L 909 171 L 911 169 L 911 167 L 909 166 L 909 163 L 911 162 L 912 160 L 912 158 L 910 157 L 910 154 L 911 153 L 915 153 Z"/>
<path fill="rgb(162,46,233)" d="M 648 416 L 648 419 L 650 419 L 651 420 L 651 422 L 650 423 L 649 423 L 649 430 L 652 430 L 655 432 L 655 435 L 654 436 L 654 437 L 651 439 L 651 443 L 652 443 L 653 444 L 653 445 L 656 445 L 656 444 L 657 443 L 659 443 L 661 445 L 663 445 L 663 443 L 662 442 L 662 439 L 659 439 L 658 438 L 658 435 L 659 434 L 660 434 L 660 432 L 659 431 L 659 427 L 656 427 L 655 426 L 655 423 L 656 422 L 659 422 L 659 420 L 655 420 L 654 419 L 652 419 L 650 416 Z M 668 417 L 668 434 L 669 435 L 669 441 L 670 443 L 673 445 L 673 447 L 679 446 L 679 442 L 680 441 L 682 441 L 682 439 L 681 438 L 681 436 L 682 435 L 686 435 L 687 436 L 695 436 L 697 438 L 699 438 L 701 442 L 704 442 L 706 440 L 712 440 L 713 439 L 725 439 L 726 433 L 725 432 L 725 428 L 724 426 L 710 426 L 709 427 L 699 427 L 698 428 L 691 428 L 690 429 L 681 429 L 679 426 L 679 416 L 678 415 L 678 412 L 675 412 L 675 414 L 674 415 L 672 415 L 671 417 Z M 434 395 L 429 395 L 428 396 L 427 396 L 425 398 L 420 398 L 418 400 L 416 400 L 414 402 L 414 404 L 413 405 L 411 405 L 411 406 L 409 408 L 409 413 L 408 414 L 405 414 L 405 417 L 406 418 L 406 421 L 405 422 L 405 424 L 408 424 L 408 423 L 409 422 L 414 422 L 417 424 L 419 424 L 420 423 L 422 423 L 424 425 L 426 425 L 426 424 L 427 423 L 427 419 L 428 418 L 430 418 L 432 416 L 432 413 L 433 412 L 433 410 L 434 409 L 434 408 L 436 405 L 436 400 L 434 398 Z M 629 405 L 624 398 L 619 397 L 617 394 L 614 394 L 613 392 L 603 388 L 593 386 L 582 387 L 578 395 L 575 395 L 574 392 L 548 393 L 540 395 L 520 394 L 515 395 L 514 398 L 508 400 L 501 399 L 499 402 L 502 417 L 504 419 L 509 420 L 519 417 L 524 418 L 526 449 L 531 451 L 529 458 L 533 458 L 535 455 L 544 457 L 547 455 L 556 456 L 559 454 L 563 456 L 564 454 L 573 452 L 575 447 L 587 449 L 589 444 L 597 444 L 599 446 L 604 445 L 624 426 L 629 415 Z M 592 404 L 597 410 L 597 417 L 595 420 L 595 423 L 592 425 L 592 428 L 590 430 L 590 433 L 589 434 L 587 434 L 587 436 L 586 437 L 580 437 L 575 440 L 572 440 L 572 441 L 570 442 L 569 444 L 560 444 L 559 446 L 557 446 L 555 444 L 555 442 L 557 439 L 557 437 L 556 436 L 556 432 L 555 431 L 555 403 L 556 402 L 560 402 L 561 401 L 583 401 L 584 402 L 588 402 Z M 465 382 L 462 382 L 456 385 L 456 386 L 454 387 L 454 394 L 451 398 L 452 404 L 450 406 L 447 406 L 446 404 L 444 404 L 443 405 L 443 408 L 447 416 L 447 419 L 449 422 L 449 424 L 452 431 L 453 437 L 457 443 L 461 443 L 463 441 L 469 441 L 469 439 L 470 438 L 472 438 L 473 439 L 478 439 L 481 437 L 486 437 L 486 435 L 484 434 L 484 428 L 482 425 L 482 423 L 481 422 L 479 414 L 477 411 L 474 400 L 472 397 L 470 389 L 465 385 Z M 864 381 L 858 380 L 853 385 L 852 389 L 849 389 L 844 393 L 835 392 L 834 394 L 829 395 L 829 398 L 831 401 L 834 413 L 836 415 L 836 419 L 839 419 L 840 415 L 844 415 L 847 417 L 847 419 L 851 420 L 850 423 L 839 425 L 839 429 L 841 434 L 845 434 L 846 430 L 844 429 L 844 427 L 848 425 L 851 425 L 852 421 L 858 421 L 863 423 L 862 426 L 859 426 L 859 432 L 862 432 L 864 430 L 864 426 L 865 425 L 872 425 L 874 429 L 877 428 L 877 421 L 874 420 L 874 418 L 872 417 L 872 413 L 870 412 L 870 409 L 872 408 L 872 405 Z"/>
<path fill="rgb(9,100,215)" d="M 1001 519 L 1001 521 L 1000 522 L 1000 524 L 1001 525 L 1001 526 L 1005 530 L 1008 530 L 1009 531 L 1013 531 L 1014 530 L 1016 530 L 1016 525 L 1015 524 L 1014 524 L 1013 523 L 1012 523 L 1010 521 L 1007 521 L 1006 520 L 1004 520 L 1003 519 Z M 651 490 L 646 490 L 645 489 L 643 489 L 641 491 L 640 491 L 640 492 L 639 493 L 635 493 L 635 494 L 632 497 L 626 497 L 625 498 L 619 498 L 619 502 L 618 503 L 617 503 L 617 505 L 618 506 L 620 506 L 621 505 L 625 505 L 626 504 L 626 503 L 627 502 L 632 502 L 636 498 L 640 498 L 641 497 L 645 497 L 647 495 L 647 494 L 648 493 L 650 493 L 651 492 Z M 970 488 L 970 490 L 971 490 L 977 497 L 978 497 L 981 500 L 983 500 L 988 504 L 990 504 L 993 506 L 995 506 L 999 509 L 1003 509 L 1007 512 L 1010 512 L 1011 514 L 1014 514 L 1015 515 L 1019 515 L 1021 517 L 1026 517 L 1028 515 L 1029 515 L 1029 512 L 1030 511 L 1030 509 L 1028 507 L 1027 507 L 1026 505 L 1023 505 L 1022 504 L 1022 502 L 1020 502 L 1019 500 L 1016 500 L 1015 499 L 1011 499 L 1010 497 L 1008 496 L 1006 496 L 1002 493 L 998 493 L 996 491 L 994 491 L 991 489 L 986 489 L 985 488 L 983 488 L 979 486 L 976 486 L 975 487 Z M 501 483 L 494 483 L 491 486 L 486 487 L 484 490 L 479 491 L 478 493 L 475 493 L 475 500 L 477 503 L 477 506 L 480 512 L 482 512 L 483 515 L 485 516 L 485 519 L 483 520 L 484 529 L 492 528 L 498 525 L 510 524 L 511 522 L 514 522 L 518 520 L 515 512 L 513 512 L 511 518 L 498 520 L 495 522 L 493 522 L 492 519 L 488 518 L 488 512 L 490 511 L 491 508 L 500 509 L 501 510 L 500 513 L 495 513 L 495 515 L 504 514 L 505 505 L 503 505 L 502 502 L 505 501 L 505 498 L 507 497 L 507 494 Z M 530 483 L 530 490 L 529 491 L 529 494 L 530 495 L 530 500 L 531 500 L 532 501 L 532 502 L 535 502 L 535 501 L 536 500 L 539 500 L 540 501 L 545 501 L 546 502 L 546 503 L 557 503 L 560 501 L 560 496 L 559 496 L 558 495 L 558 491 L 559 490 L 559 480 L 558 479 L 558 477 L 555 477 L 555 479 L 554 480 L 551 480 L 550 479 L 547 479 L 546 478 L 546 477 L 544 477 L 543 478 L 542 478 L 542 479 L 540 481 L 537 481 L 536 480 L 534 480 L 532 483 Z M 851 470 L 851 476 L 853 477 L 852 485 L 854 486 L 854 496 L 857 497 L 856 503 L 858 507 L 858 511 L 863 511 L 865 507 L 868 507 L 868 500 L 871 493 L 873 493 L 874 496 L 876 497 L 876 499 L 879 500 L 879 504 L 884 506 L 884 512 L 891 511 L 891 506 L 892 505 L 896 505 L 896 502 L 893 500 L 893 498 L 889 498 L 887 505 L 883 505 L 882 504 L 882 502 L 884 499 L 884 495 L 887 493 L 894 492 L 894 485 L 892 484 L 890 477 L 886 476 L 885 473 L 882 473 L 881 470 L 876 469 L 876 474 L 871 476 L 869 476 L 867 474 L 867 471 L 859 472 L 858 469 L 854 468 L 853 470 Z M 657 476 L 661 478 L 663 478 L 664 476 L 669 476 L 670 477 L 670 480 L 674 482 L 675 485 L 679 486 L 680 488 L 683 487 L 690 488 L 691 485 L 695 485 L 696 488 L 703 488 L 704 486 L 712 486 L 716 491 L 739 490 L 739 486 L 741 485 L 741 482 L 743 477 L 744 467 L 729 467 L 723 469 L 716 468 L 715 469 L 705 470 L 704 471 L 696 470 L 695 472 L 677 474 L 676 473 L 677 466 L 675 466 L 674 468 L 669 468 L 668 466 L 665 466 L 661 471 L 659 471 L 659 473 L 657 474 Z M 579 471 L 579 478 L 585 483 L 587 483 L 589 485 L 590 485 L 594 489 L 595 489 L 597 491 L 600 491 L 601 492 L 601 494 L 603 494 L 603 491 L 601 491 L 600 490 L 600 487 L 601 486 L 605 486 L 605 484 L 606 483 L 615 483 L 616 484 L 616 485 L 618 485 L 620 483 L 624 483 L 624 477 L 623 476 L 623 474 L 619 474 L 618 473 L 618 471 L 617 470 L 616 470 L 614 468 L 611 467 L 609 465 L 595 465 L 595 467 L 592 469 L 582 469 L 582 470 L 581 471 Z M 787 461 L 784 461 L 781 459 L 779 459 L 778 460 L 775 460 L 775 463 L 774 464 L 773 464 L 773 468 L 772 469 L 771 469 L 771 471 L 773 471 L 775 473 L 775 477 L 776 478 L 776 487 L 777 488 L 777 490 L 775 492 L 772 492 L 772 493 L 771 494 L 769 494 L 768 493 L 768 491 L 766 491 L 766 493 L 768 493 L 769 494 L 769 496 L 782 496 L 783 491 L 782 491 L 781 490 L 781 488 L 782 487 L 783 487 L 785 484 L 785 475 L 786 474 L 788 474 L 789 473 L 794 474 L 794 473 L 795 472 L 796 472 L 796 470 L 794 470 L 793 469 L 793 468 L 788 468 L 787 467 Z M 139 279 L 139 281 L 140 282 L 140 284 L 146 284 L 148 286 L 148 287 L 149 288 L 149 289 L 152 289 L 153 290 L 156 290 L 159 292 L 162 292 L 162 290 L 163 289 L 168 289 L 169 290 L 169 293 L 170 294 L 172 294 L 174 292 L 174 289 L 173 288 L 172 288 L 171 287 L 165 287 L 163 284 L 159 284 L 157 282 L 152 282 L 151 281 L 147 281 L 146 280 L 146 279 L 143 279 L 142 278 L 140 278 Z"/>
<path fill="rgb(94,48,226)" d="M 591 450 L 581 450 L 580 449 L 577 449 L 577 451 L 580 452 L 581 453 L 581 455 L 580 456 L 575 456 L 574 457 L 572 457 L 572 459 L 571 460 L 569 460 L 567 458 L 565 458 L 564 459 L 560 459 L 558 461 L 556 461 L 555 460 L 554 457 L 553 456 L 551 456 L 550 457 L 549 457 L 549 461 L 551 461 L 552 462 L 557 462 L 560 464 L 564 464 L 565 465 L 567 465 L 567 464 L 568 463 L 574 463 L 575 464 L 578 464 L 580 462 L 582 462 L 583 461 L 586 461 L 586 459 L 587 458 L 588 458 L 588 456 L 589 455 L 590 455 L 590 453 L 591 452 Z M 847 454 L 847 452 L 843 452 L 842 451 L 842 449 L 840 449 L 840 450 L 839 451 L 837 451 L 836 450 L 836 448 L 834 448 L 834 450 L 833 451 L 831 451 L 830 450 L 830 448 L 828 448 L 828 449 L 827 450 L 817 450 L 816 449 L 808 449 L 807 450 L 805 450 L 805 453 L 806 454 L 806 455 L 807 455 L 809 457 L 811 457 L 811 454 L 814 451 L 818 451 L 819 452 L 821 452 L 822 453 L 828 453 L 829 454 L 836 454 L 837 455 L 844 455 L 845 454 Z M 488 441 L 487 440 L 487 439 L 485 439 L 484 438 L 481 438 L 480 439 L 479 439 L 479 440 L 478 441 L 476 441 L 475 440 L 473 440 L 473 441 L 472 442 L 465 442 L 464 443 L 462 443 L 462 445 L 463 446 L 463 450 L 465 450 L 466 449 L 468 449 L 469 448 L 473 448 L 474 447 L 476 447 L 476 446 L 477 445 L 480 445 L 481 444 L 484 444 L 485 443 L 488 443 Z M 420 435 L 418 435 L 417 436 L 412 436 L 412 438 L 413 438 L 414 439 L 414 442 L 413 443 L 413 447 L 412 448 L 406 448 L 406 451 L 405 452 L 405 455 L 410 455 L 411 456 L 412 456 L 413 457 L 413 458 L 415 458 L 415 455 L 414 455 L 413 454 L 413 451 L 414 450 L 416 450 L 417 451 L 419 451 L 419 449 L 420 448 L 420 443 L 421 442 L 422 442 L 422 437 L 421 437 L 420 436 Z M 334 507 L 339 507 L 340 513 L 348 513 L 349 509 L 362 508 L 365 502 L 371 506 L 385 488 L 413 490 L 417 484 L 418 488 L 422 489 L 426 481 L 432 480 L 443 481 L 444 485 L 469 478 L 475 470 L 483 471 L 477 476 L 477 480 L 484 481 L 491 471 L 504 468 L 503 456 L 495 450 L 494 454 L 483 456 L 481 464 L 475 463 L 478 457 L 461 458 L 460 461 L 451 461 L 452 467 L 426 468 L 415 472 L 411 471 L 415 463 L 410 464 L 409 461 L 400 459 L 398 468 L 404 469 L 405 472 L 396 475 L 391 473 L 390 469 L 394 468 L 394 452 L 404 440 L 401 435 L 406 427 L 403 427 L 397 433 L 399 444 L 392 446 L 388 461 L 385 462 L 379 477 L 379 484 L 356 492 L 355 497 L 349 495 L 341 499 Z"/>
<path fill="rgb(20,99,169)" d="M 962 191 L 959 191 L 958 192 L 958 193 L 957 194 L 956 194 L 956 198 L 955 199 L 952 199 L 952 203 L 951 204 L 948 204 L 947 203 L 947 198 L 945 198 L 945 209 L 944 210 L 944 212 L 947 212 L 947 211 L 948 210 L 950 210 L 951 211 L 953 211 L 954 210 L 958 210 L 958 207 L 957 206 L 957 201 L 958 200 L 960 200 L 961 201 L 961 205 L 966 205 L 967 206 L 967 210 L 969 210 L 969 207 L 968 206 L 968 202 L 964 202 L 963 201 L 963 196 L 962 195 Z"/>
<path fill="rgb(154,26,88)" d="M 205 513 L 205 516 L 209 516 L 210 518 L 216 517 L 218 513 L 221 514 L 221 521 L 218 522 L 215 527 L 211 527 L 211 529 L 214 529 L 215 532 L 219 531 L 220 527 L 222 527 L 224 531 L 230 530 L 231 534 L 225 537 L 225 540 L 228 541 L 228 544 L 230 544 L 231 542 L 235 542 L 236 538 L 239 539 L 239 543 L 253 543 L 254 547 L 250 548 L 249 551 L 242 549 L 242 551 L 244 551 L 248 555 L 256 555 L 258 543 L 262 544 L 263 547 L 271 546 L 267 538 L 254 539 L 253 536 L 257 535 L 257 533 L 249 531 L 247 521 L 242 521 L 241 523 L 236 522 L 235 518 L 237 517 L 237 515 L 232 516 L 231 522 L 227 522 L 226 517 L 230 512 L 235 511 L 235 509 L 228 508 L 228 503 L 221 504 L 219 507 L 215 507 Z M 232 474 L 228 474 L 227 476 L 223 476 L 219 474 L 213 474 L 212 473 L 212 470 L 192 471 L 192 474 L 191 475 L 188 475 L 186 478 L 183 479 L 182 480 L 182 482 L 178 485 L 178 487 L 173 491 L 173 493 L 175 497 L 175 502 L 179 505 L 179 509 L 180 509 L 181 511 L 194 512 L 195 513 L 195 515 L 199 515 L 199 512 L 197 512 L 196 511 L 196 507 L 197 506 L 207 506 L 207 505 L 210 503 L 212 500 L 216 498 L 216 494 L 217 493 L 219 493 L 219 491 L 220 490 L 222 490 L 223 491 L 223 497 L 225 497 L 225 495 L 230 491 L 230 485 L 231 483 L 233 482 Z M 1033 337 L 1031 337 L 1030 340 L 1027 340 L 1026 338 L 1024 338 L 1024 340 L 1026 341 L 1026 346 L 1025 347 L 1019 346 L 1018 349 L 1014 349 L 1014 351 L 1018 351 L 1021 354 L 1026 354 L 1027 351 L 1034 351 L 1035 354 L 1030 358 L 1029 363 L 1031 364 L 1031 367 L 1030 368 L 1024 367 L 1023 369 L 1019 369 L 1018 379 L 1017 380 L 1013 381 L 1012 379 L 1010 379 L 1012 385 L 1027 385 L 1028 386 L 1035 385 L 1037 382 L 1039 381 L 1041 377 L 1046 378 L 1046 375 L 1050 372 L 1051 370 L 1053 370 L 1055 367 L 1059 367 L 1059 363 L 1056 360 L 1053 359 L 1052 354 L 1051 354 L 1050 352 L 1047 352 L 1046 351 L 1046 347 L 1034 339 Z"/>
<path fill="rgb(238,155,225)" d="M 402 378 L 402 380 L 403 381 L 403 382 L 405 382 L 406 383 L 406 387 L 408 390 L 408 392 L 409 392 L 412 395 L 412 396 L 417 396 L 419 394 L 419 392 L 420 391 L 420 389 L 421 388 L 424 388 L 425 389 L 425 390 L 427 390 L 428 389 L 429 389 L 429 387 L 427 387 L 425 385 L 422 385 L 421 384 L 419 384 L 419 388 L 418 389 L 418 390 L 417 391 L 414 391 L 413 390 L 413 385 L 412 385 L 410 383 L 410 382 L 407 382 L 406 381 L 406 377 L 403 377 Z M 520 377 L 520 379 L 529 383 L 529 387 L 527 388 L 527 390 L 540 389 L 541 386 L 546 387 L 547 386 L 551 386 L 554 384 L 561 384 L 562 383 L 585 383 L 586 381 L 593 381 L 594 384 L 596 385 L 605 385 L 610 387 L 617 385 L 617 383 L 615 381 L 612 381 L 606 378 L 605 376 L 602 376 L 601 375 L 598 376 L 588 375 L 586 378 L 583 378 L 581 374 L 567 374 L 566 372 L 554 372 L 553 373 L 550 373 L 549 375 L 539 374 L 538 375 L 530 375 L 529 376 Z M 749 368 L 744 367 L 743 369 L 725 368 L 724 369 L 718 369 L 717 371 L 712 371 L 711 372 L 707 372 L 706 371 L 694 372 L 690 374 L 682 375 L 681 377 L 672 376 L 671 378 L 668 378 L 667 379 L 660 378 L 659 380 L 650 380 L 647 381 L 647 389 L 663 388 L 665 385 L 674 384 L 683 381 L 743 375 L 746 371 L 749 370 Z M 471 362 L 469 362 L 468 363 L 465 363 L 465 364 L 464 365 L 462 365 L 461 366 L 459 366 L 458 367 L 456 367 L 455 368 L 454 368 L 453 369 L 450 369 L 450 370 L 449 371 L 445 371 L 445 373 L 449 373 L 450 374 L 450 376 L 452 376 L 452 375 L 453 374 L 455 374 L 456 375 L 456 378 L 457 379 L 457 380 L 459 380 L 459 379 L 460 378 L 465 378 L 465 377 L 466 376 L 467 376 L 467 373 L 468 372 L 468 369 L 469 368 L 470 368 L 470 366 L 471 365 Z M 861 367 L 860 359 L 859 358 L 859 356 L 858 356 L 856 354 L 856 351 L 850 351 L 849 352 L 835 352 L 834 353 L 826 353 L 825 354 L 807 355 L 806 356 L 800 356 L 796 358 L 784 358 L 784 360 L 785 360 L 792 367 L 794 368 L 796 368 L 800 366 L 802 366 L 803 367 L 808 367 L 809 366 L 824 366 L 825 365 L 837 365 L 838 366 L 856 366 L 857 367 Z"/>
<path fill="rgb(19,142,217)" d="M 771 479 L 768 479 L 768 481 L 767 482 L 765 482 L 765 484 L 764 485 L 760 485 L 759 484 L 759 480 L 760 479 L 760 475 L 758 475 L 758 477 L 757 478 L 757 479 L 756 480 L 756 482 L 755 483 L 755 485 L 754 486 L 754 489 L 753 490 L 753 493 L 759 493 L 759 489 L 761 487 L 764 487 L 765 488 L 765 490 L 769 490 L 769 483 L 770 482 L 771 482 Z"/>
<path fill="rgb(219,104,95)" d="M 992 396 L 992 399 L 995 399 L 996 397 L 998 397 L 999 398 L 999 400 L 1003 400 L 1004 401 L 1004 404 L 1003 405 L 998 405 L 997 404 L 991 405 L 991 408 L 992 409 L 994 409 L 996 411 L 996 415 L 999 415 L 1002 417 L 1008 417 L 1009 418 L 1009 422 L 1017 423 L 1019 421 L 1021 421 L 1023 423 L 1023 426 L 1025 427 L 1025 431 L 1027 431 L 1028 430 L 1028 426 L 1030 425 L 1030 419 L 1031 418 L 1035 418 L 1036 419 L 1036 421 L 1041 420 L 1041 417 L 1039 417 L 1037 414 L 1031 414 L 1030 413 L 1030 408 L 1031 407 L 1034 407 L 1034 405 L 1032 405 L 1030 403 L 1031 397 L 1023 396 L 1022 394 L 1019 394 L 1018 396 L 1016 396 L 1015 395 L 1007 395 L 1006 394 L 999 394 L 998 393 L 996 393 L 996 395 L 995 396 Z M 1055 375 L 1053 375 L 1053 376 L 1052 377 L 1050 377 L 1049 378 L 1048 378 L 1048 381 L 1047 382 L 1044 382 L 1044 383 L 1043 384 L 1037 384 L 1033 388 L 1033 390 L 1039 390 L 1040 389 L 1048 389 L 1048 387 L 1049 386 L 1053 386 L 1054 385 L 1055 385 Z"/>
</svg>